<svg xmlns="http://www.w3.org/2000/svg" viewBox="0 0 545.2 545.18">
  <defs>
    <style>
      .cls-1, .cls-4 {
        fill: #252468;
      }

      .cls-2 {
        fill: #fff;
      }

      .cls-3 {
        fill: none;
      }

      .cls-4, .cls-6 {
        fill-rule: evenodd;
      }

      .cls-5 {
        fill: #80cded;
      }

      .cls-6 {
        fill: #2b2b65;
      }
    </style>
  </defs>
  <g id="Layer_2" data-name="Layer 2">
    <g id="Layer_1-2" data-name="Layer 1">
      <g>
        <g>
          <ellipse class="cls-1" cx="272.6" cy="272.59" rx="272.6" ry="272.59" transform="translate(-11.5 12) rotate(-2.47)"/>
          <ellipse class="cls-2" cx="272.94" cy="273.61" rx="263.4" ry="263.4" transform="translate(-5.56 541.57) rotate(-88.97)"/>
          <g>
            <path class="cls-3" d="M400.81,199.42a146.39,146.39,0,0,1,12.76,115.47,144.85,144.85,0,0,0-12.76-115.47Z"/>
            <path class="cls-1" d="M272.43,25.21C135.14,25.21,23.85,136.5,23.85,273.78S135.14,522.36,272.43,522.36,521,411.07,521,273.78,409.72,25.21,272.43,25.21ZM274,417.83A146,146,0,1,1,400.81,199.42a144.85,144.85,0,0,1,12.76,115.47A146.06,146.06,0,0,1,274,417.83Z"/>
          </g>
          <path class="cls-2" d="M207.86,455.94l1.25,2.39a4.22,4.22,0,0,0,4.21-.11l4.42-2.28,3.07.8a1.67,1.67,0,0,1,.34,1.59L217.74,474s-.79,2.72,1,3.29l4.09.68s2.27.12,2.27-3.06l4.32-19.54s.9-2.95-2.5-3.75l-5.8-1.82s-4.32-.68-6.81,1l-5.91,3.53a1.38,1.38,0,0,0-.69,1.25Z"/>
          <path class="cls-2" d="M278.2,459.47s-.34-3,3.18-3.18l22-1.59s3.52-.34,3.86,2c0,0-.23,2.61-3.64,2.73l-16.58,1s-3.86,2.38,0,4.32a59.94,59.94,0,0,1,17.38-.57s5.68.34,6,5.45l.34,7.39s.57,3.07-5.45,5.11l-19.43,1.71s-8.67-.69-6.59-6.14c1.48-3.86,9.32.79,9.32.79l12-.57s5.11-2.15,2.84-6.36c0,0-.34-4.09-8.18-3.06,0,0-6.93-.12-10.45,2.84l-4.54.11s-1.14-.11-1.37-1.93Z"/>
          <path class="cls-2" d="M319,455.24s-.84-2.85,2.59-3.67l21.44-5.34s3.42-.94,4.16,1.35c0,0,.22,2.62-3.12,3.32l-16.17,3.84s-3.39,3,.74,4.25a60,60,0,0,1,17-3.53s5.65-.64,6.86,4.34l1.6,7.22s1.09,2.92-4.49,6l-18.85,5s-8.67.8-7.54-4.92c.79-4.06,9.31-.81,9.31-.81l11.77-2.62s4.67-3,1.71-6.75c0,0-1-4-8.59-1.62,0,0-6.84,1.07-9.81,4.58l-4.46.89s-1.13.08-1.67-1.67Z"/>
          <g>
            <path class="cls-2" d="M182.72,418.27s2.5-2.61-1.36-4.88L142.73,386a2.48,2.48,0,0,0-3.07,0l-4.2,5.91a1.14,1.14,0,0,0,.46,1.48L164.54,414a3.74,3.74,0,0,1,1,5,8.16,8.16,0,0,1-2.39,3.52s-.8,1.13-4-.34L133,403.62s-1.25-1.7-3.41.34l-2.49,3.86s-.69,2.05.79,2.84L154.66,430a2.89,2.89,0,0,1,.91,3.41s-1,2.73-2.16,3.41c0,0-.45,1.48-3.75.57l-28.17-20.11s-2.39-1.81-4.09.46l-2.61,3.86s-.92,2.27.34,3.29l37.49,27.95s4.2,2.39,6.36-.68Z"/>
            <path class="cls-2" d="M99.9,361.59S101,363,104,363l3.52-3.3s1-.9-.22-2.15l-8.07-12.61s-1.7-3.41,1.82-4.89a5.07,5.07,0,0,1,4.32.23s3.63,2,16.47,24.31a7.06,7.06,0,0,1,0,6.59l-15,10.56a6,6,0,0,1-7-1.36s-11-10-16-22.95c0,0-1.25-1.59,0-5.11a3.7,3.7,0,0,0,.12-4.54L78.32,340s-11.13,5.57-7.27,14c0,0-.46,8.29,26.13,40.55,0,0,5,5.45,12.27,1.14,0,0,9.88-4.32,23.06-15.57a10.82,10.82,0,0,0,1.36-14.42s-7.61-16.82-25.11-36.58c0,0-3.29-4.32-10.11-2.28l-13.29,8.41s-2,.91-.57,3.18Z"/>
            <path class="cls-2" d="M58.78,267.29l3.41,48.63s.22,3.63,3.63,2.72l40.45-2.95s3.86,1.14,4.08-3.86l-2.61-47.95a2.58,2.58,0,0,0-2.27-2.15H98.65s-2.27.45-2.38,2.27l2.61,35.78a2.52,2.52,0,0,1-1.82,2.73s-3.86.91-5.68.23c0,0-2.16-.57-2.5-3.86l-1.13-31.36a2.72,2.72,0,0,0-2-2.84L80,264.57a2.64,2.64,0,0,0-1.82,3.06l2.28,31.93s.79,2.84-1.71,4.09a5.06,5.06,0,0,1-5.34.22,3.3,3.3,0,0,1-2.27-2.95l-1.7-34.31a2.54,2.54,0,0,0-2.16-2.95l-6.48.45a2.25,2.25,0,0,0-2.15,2.27Z"/>
            <path class="cls-2" d="M55.83,204l3-7.73s1-2.27,3.07-1.25l2.83,1.25s1.71.8.69,1.93l-3.07,9.09s-1,1.93-2.5,1.48l-3.3-1.37s-1.58-.34-.9-2.61S55.83,204,55.83,204Z"/>
            <path class="cls-2" d="M73.32,157.89l3-7.72s1-2.27,3.07-1.25l2.84,1.25s1.71.79.68,1.93l-3.07,9.09s-1,1.93-2.49,1.47L74,161.3s-1.59-.34-.91-2.61S73.32,157.89,73.32,157.89Z"/>
            <path class="cls-2" d="M68.78,206l1.93-5.11s1.13-2.28,3.86-.57l24.76,10.11s6.14,2.16,9.09-3.3l7.84-20.67s1.71-4.55-3.18-8.41l-26-10.79s-3.3-.34-1.71-4.43l3-7.61s.8-2.73,3.87-1.37l30.9,13.52s8.18,4.32,6.36,12.61a94.15,94.15,0,0,1-6.13,21.13s-6.71,16.25-8.52,18.07c0,0-4.44,9.08-14.32,5.9L69.23,213.45s-3.41-.23-1.93-4.55Z"/>
            <path class="cls-2" d="M109.79,133.7s-3-2.16.34-4.55l15.56-12.84s1.93-2.27,7.27.12l35.11,9.77s4.77.45,2.38-3.75l-19.77-23.4s-2.27-2.39.69-4.66l5.68-5s1.93-2.27,5.22-.11l27,33.05s2.72,3.07-.57,5.23l-14.88,12.27a6.57,6.57,0,0,1-6.82.57l-35-10s-6-1.36-3.86,3.75l19.65,23.18s2.5,2.27.12,3.74l-6.25,5.68s-1.36,2.16-4.43-.34Z"/>
            <path class="cls-2" d="M176.7,64.4s-1.36-2.05,1.25-3.18l10.68-4.66a3.56,3.56,0,0,1,3.18,1.13l1.48,3.75a1.86,1.86,0,0,1-1.14,2.73l-10.57,4.89s-1.24,1.47-2.49-.34Z"/>
            <path class="cls-2" d="M182.61,77.92s-1.71-1.71-.23-3.41l12-5.57A2.37,2.37,0,0,1,197,70.87l18.41,40.56a2.08,2.08,0,0,1-.69,2.84l-9.65,5.11a2.81,2.81,0,0,1-3.41-1Z"/>
            <path class="cls-2" d="M207,65.19s-1.82-2,.91-3.63l13.52-.23s1.93.57,2.27,2l19.09,30.45s4.09,3,5.22-1.13l11.59-34.54s1.25-2.61,3.06-2.73l10.81-.56s3.19-.12,1.71,3.29l-15.13,45.44s-1,3.18-4,3.41l-17.72,2.27a3.38,3.38,0,0,1-4.32-2.5Z"/>
            <path class="cls-2" d="M286,59.17s1.6-3.63,4.89-2.38l47.83,4.65s2.95.46,2.49,3l-.33,7.27s-.23,2.27-2.84,1.7L302.7,69.62s-1.7-.22-2.95,2l-.12,3.18a3.62,3.62,0,0,0,3.64,3.07l30.79,2.61s3.52.34,3.29,2.5l-.56,6.59s-1.14,2.95-3.87,2l-31.13-3.18s-2.16-1.13-3.63,1.82c0,0-.91,2.73-.23,3.86a6.67,6.67,0,0,0,2.61,2.5l32.61,2.84s4.54-.11,4.32,3.3l-.46,6.13s.23,3.07-3.4,3.07l-47-4.32s-5.79.12-4.89-6.47Z"/>
            <path class="cls-2" d="M411.93,103.66,372.28,74.35c-4.32-3.07-6.48,1.59-6.48,1.59l-24.19,34.42a2.79,2.79,0,0,0,.22,4.21l8.41,6.47a2.83,2.83,0,0,0,4.09-1.25l3.52-5.11a4,4,0,0,1,5.34-1l18.63,13.86c2.95,2.16,1.14,6.25,1.14,6.25l-2.95,5c-1.14,2.5.33,3.3.33,3.3l8.07,5.23c2.39,2.38,3.3.11,3.3.11l5.45-8.75c1.93-1.93.34-4.66.34-4.66a3.66,3.66,0,0,1,3.07-4.88c4,.34,5.34-1.93,5.34-1.93a36.17,36.17,0,0,0,9.09-13A10.38,10.38,0,0,0,411.93,103.66Zm-13.41,9.54L395,117.41a4.51,4.51,0,0,1-5.45.79l-20.22-14.65s-2.84-.46-1.48-4.43L372.17,93a4.68,4.68,0,0,1,5.45-.11l19.77,14.65A4.64,4.64,0,0,1,398.52,113.2Z"/>
            <path class="cls-2" d="M403.7,145.28l6.13,9.2s1.25,1.82-.91,3.64c0,0-.57,4.09,1,5.91l12.72,18.86a5.14,5.14,0,0,0,5.35.9s2.61-1,1.81-5.56L413.12,151s-4.65-7.72,1.37-13.4c0,0,4.88-5.11,9.43-6.25,0,0,6.36-3.07,10.57,1.7,0,0,9.31,7.5,22.37,31.7,0,0,4.77,5,1.59,13.06l-3.86,3.64s-2.84,2-4.66-.68l-4.77-7.27s-1.7-1.25,0-4.21c0,0,1.93-2.61-.57-6.13l-11.7-17s-7.5-3.75-6.36,5.34l16.25,27.26s3.52,6.14.45,11.48A25.5,25.5,0,0,1,431,199s-7.27,2.38-10.9-2.62l-23.18-34.08s-4.66-6.81-.22-12.72l4.42-4.09s1.25-1.36,2.16-.68Z"/>
            <path class="cls-2" d="M428.57,217.65s-1.47-3.07,2.84-3.86l37.49-12.27s3.53-1.82,5.23,1.81l3.18,9.66s1.25,3.18-3.63,4.2L437.32,229s-4,1.93-4.88-1Z"/>
            <path class="cls-2" d="M482.2,212a2.38,2.38,0,0,0,2.95,1.48l3.52-1.48s2.39-.8.91-3.75l-3.41-10.79s-.79-2.16-2.72-1.25l-4,1.13s-1.59.8-.79,1.94Z"/>
            <path class="cls-2" d="M436.19,255.93s-.57-2.84,2.84-3.52l30-2.95a3.79,3.79,0,0,0,3.3-3.87L470,228.78s-.91-3.41,2.5-3.63l6.59-.57a3,3,0,0,1,3.29,3.29l6,53.74s.79,4.54-2.5,5.23l-6.71.68s-2.95.45-3.63-3.75l-1.37-15.68s.34-2.73-4.31-3.07l-28.4,3.18s-1.93,1.14-4.66-2.27Z"/>
            <path class="cls-2" d="M437.66,292.18s.23-3.19,3.18-2.5l42.72,10.22a3.31,3.31,0,0,1,2.5,4.2L476,352.38s-.91,3-3.63,2.16l-6.48-1.93s-2.27-1-1.14-4.32l7.38-32.49a3.87,3.87,0,0,0-2.83-4.2s-3.87-1.25-4.66,2L458,344.32s-.23,4.09-3.18,3.52l-6.14-1.7s-2.38-.57-1.13-4.09l7-30.68s.23-2.84-3.41-3.63c0,0-3.63-1.25-4.65,1.59l-7.62,33.51a3.3,3.3,0,0,1-2.83,3.3l-7.62-1.82s-2.38-1.14-1.13-4.21Z"/>
            <path class="cls-2" d="M430.28,368.4l8.07-10.68s-8.3-10-17.05-3c0,0-17.94,18.63-24.76,33.85,0,0-3.18,6.82,1.25,11.36a29.36,29.36,0,0,0,10.11,8.75s6,2,10.34-1.82L440.05,381s7.61-3.29,6.82,4.32l-12.73,18.18s-1.59,2.84-7.27,1.7l-7,8.86s-1,1.93.34,2.62c0,0,7,8.17,14.88.9,0,0,14.77-14,23.86-31.35,0,0,4.09-4,.11-12.16a27.64,27.64,0,0,0-11.47-8.86s-4.43-3-9.2,1.71c0,0-8.3,7.84-21.14,25.1a4.64,4.64,0,0,1-6.47,1.93s-3.87-1.7-.57-7.5A104.36,104.36,0,0,1,424,368.18s3.18-2.28,5.34-.34Z"/>
            <path class="cls-2" d="M376.43,405.21s-3.18,2.39-.11,4.89l25.45,34a3,3,0,0,0,4.77.8l7.16-6.25s2.61-2.16-.35-5.23l-25.44-32.71s-1.59-3.07-4.32-.91Z"/>
            <path class="cls-2" d="M408.7,450.54s-2.73,1.36-1,3.4l3.3,3.75s1.59,1.71,3.29-.45l9.31-7.72s1.49-2-.11-3.41l-3.06-3.3s-1.36-1.47-2.85.34Z"/>
          </g>
          <path class="cls-2" d="M263.52,455.15l-18.85-.57a7.56,7.56,0,0,0-6.13,4l-.29.68c-1.19,1.65-.63,7.27-.63,7.27.69,5,10.12,5.23,10.12,5.23h11.58c3.64.23,3,3.06,3,3.06a5.43,5.43,0,0,1-2.85,3l-5.11.11c-5.67.34-7.49-1.25-7.49-1.25a7.87,7.87,0,0,0-6.48-1.82c-2.95.46-1.48,4-1.48,4,1.71,2.5,7,3.64,7,3.64h17.72a6.43,6.43,0,0,0,5.68-5.57l.46-15.11A8.61,8.61,0,0,0,263.52,455.15Zm-4.2,12.61L249,467.53s-1.93.57-3.86-3.18c0,0-.56-4.09,2.39-4.54l1.14-.23,10.67.34s3.52.91,3.41,3.18C262.73,463.1,264.32,467.08,259.32,467.76Z"/>
          <path class="cls-4" d="M356.56,271.94a83.89,83.89,0,1,0-8.15,36.1H308.18S285,331.4,254.29,318.48s-31.06-38-31.06-38H356.14C356.41,277.64,356.56,274.81,356.56,271.94ZM224.75,255.28c6.4-20.33,25.4-33.65,47.86-33.65,39.27,0,47.9,33.81,47.9,33.81Z"/>
        </g>
        <g>
          <path class="cls-5" d="M197.69,155.81h0Z"/>
          <path class="cls-5" d="M224.33,156.57s12.18,11.32,25.09,11.32c13.12,0,23.51-11.32,23.51-11.32s12.19,11.32,25.11,11.32c13.12,0,24.34-11.32,24.34-11.32s12.18,11.32,25.09,11.32c8.21,0,16-4.43,20.69-7.75q-4.5-3.81-9.31-7.25a23,23,0,0,1-11.19,2.92h.09s-9.9,1-19.86-11.32c-5.58-6.89-10.34,0-10.34,0h0s-6.88,11.32-20.17,11.32-20.52-11.32-20.52-11.32-4.77-6.89-10.36,0c-10,12.31-18.18,11.32-18.18,11.32h.08c-13.29,0-20.51-11.32-20.51-11.32s-4.76-6.89-10.34,0c-9.61,11.87-19.14,11.38-19.82,11.33-.41,0-4.18.22-9.26-2.39Q183.6,157,179,160.88c5,3.2,12.64,7,20.13,7C212.27,167.89,224.33,156.57,224.33,156.57Z"/>
          <path class="cls-5" d="M376,182.29c-5.58-6.9-10.34,0-10.34,0s-5.5,11.32-18.79,11.32H347s-9.89,1-19.86-11.32c-5.58-6.9-10.34,0-10.34,0h0s-5.6,8.21-15.47,10.64a83.8,83.8,0,0,1,13.62,6.48,50,50,0,0,0,6.68-5s12.19,11.32,25.09,11.32c13.12,0,23.46-11.32,23.46-11.32s14.92,11.32,27.84,11.32a25.88,25.88,0,0,0,5.9-.71q-3-5.83-6.52-11.36C395.87,193.68,385.13,193.51,376,182.29Z"/>
          <path class="cls-5" d="M194.43,193.61h0Z"/>
          <path class="cls-5" d="M172.36,194.37s10.61,11.32,23.53,11.32c13.12,0,25.17-11.32,25.17-11.32a52.61,52.61,0,0,0,7.66,5.63,84,84,0,0,1,13.43-6.59c-11.38-1.5-17.53-11.12-17.53-11.12s-4.76-6.9-10.34,0c-9.6,11.87-19.14,11.38-19.81,11.32s-7.63.55-17.24-11.32c-5.57-6.9-10.33,0-10.33,0s-7,7-15.35,10a143.73,143.73,0,0,0-7.74,13.42l.79,0C157.72,205.69,172.36,194.37,172.36,194.37Z"/>
          <path class="cls-5" d="M198.17,231.41h0Z"/>
          <path class="cls-5" d="M394.07,231.41c-.68.05-10.21.54-19.82-11.33-5.58-6.89-10.34,0-10.34,0s-6.32,9.92-18,11.19a83.2,83.2,0,0,1,5.07,11c9.76-2.91,17.43-10.11,17.43-10.11s13.2,11.32,26.12,11.32c8.39,0,16.35-4.64,21-8q-1.67-6.52-3.91-12.81C402.8,231.87,394.69,231.46,394.07,231.41Z"/>
          <path class="cls-5" d="M176.53,232.17a33.52,33.52,0,0,0,17,10.56,83.59,83.59,0,0,1,5.15-11.3,4.28,4.28,0,0,1-.49,0c-.68.05-7.2.54-16.81-11.33-5.57-6.89-10.33,0-10.33,0s-10.24,11.33-23.53,11.33h.08S142,232,135,227c-1.19,3.73-2.25,7.52-3.15,11.36,4.55,2.64,10.43,5.12,16.47,5.12C161.46,243.49,176.53,232.17,176.53,232.17Z"/>
          <path class="cls-5" d="M394,231.41h0Z"/>
          <path class="cls-5" d="M355.84,280.21c.28-2.79.43-5.63.43-8.5,0-1.22,0-2.44-.09-3.65a27.62,27.62,0,0,0,13.38-10.18s4.75-6.89,10.33,0c9.61,11.87,19.15,11.38,19.82,11.33s10.11.53,19.67-11.15q.63,6.75.64,13.66c0,.8,0,1.6,0,2.39-4.74,3.24-12.11,7.18-19.85,7.18C387.22,281.29,374,270,374,270S365,278.83,355.84,280.21Z"/>
          <path class="cls-5" d="M171.91,270a58.28,58.28,0,0,0,16.88,9.66c-.24-2.6-.38-5.24-.38-7.91,0-1.45,0-2.89.11-4.32a32.41,32.41,0,0,1-11.74-9.51c-5.58-6.89-10.34,0-10.34,0s-7.22,11.33-20.51,11.33H146s-8.42.83-17.55-8.71c-.28,3.71-.42,7.44-.42,11.22,0,1,0,2.08,0,3.11,4.75,3.07,11.59,6.46,18.65,6.46C159.85,281.29,171.91,270,171.91,270Z"/>
          <path class="cls-5" d="M399.67,269.21h0Z"/>
          <path class="cls-5" d="M398.85,308.15h0Z"/>
          <path class="cls-5" d="M398.9,308.16c-.68,0-10.22.54-19.82-11.33-5.58-6.89-10.34,0-10.34,0s-7.22,11.32-20.52,11.32h.08l-.36,0a83.72,83.72,0,0,1-6.5,11.16,26.06,26.06,0,0,0,6.59.91c13.12,0,25.18-11.33,25.18-11.33s13.2,11.33,26.11,11.33a31.48,31.48,0,0,0,13.62-3.54,144.22,144.22,0,0,0,4.7-18.6C408.4,308.66,399.55,308.2,398.9,308.16Z"/>
          <path class="cls-5" d="M176.67,308.91s13.2,11.33,26.11,11.33l1.08,0a83.34,83.34,0,0,1-7.46-12.73c-3.8-1.07-9.31-3.81-14.86-10.65s-10.34,0-10.34,0-7.22,11.32-20.51,11.32h.08s-9.89,1-19.86-11.32a10.59,10.59,0,0,0-.87-1,145.67,145.67,0,0,0,4.47,19c4.62,2.74,10.71,5.42,17,5.42C164.61,320.24,176.67,308.91,176.67,308.91Z"/>
          <path class="cls-5" d="M182.68,346.77s13.19,11.33,26.11,11.33c12.47,0,24.49-10.49,25.64-11.52a82.76,82.76,0,0,1-11.71-7.19c-7.91,7-14.78,6.67-15.35,6.63s-10.21.54-19.82-11.33c-5.58-6.89-10.34,0-10.34,0S170,346,156.7,346h.08s-4.28.42-10-2.78a147.67,147.67,0,0,0,9.58,14.83c.39,0,.79,0,1.18,0C170.62,358.1,182.68,346.77,182.68,346.77Z"/>
          <path class="cls-5" d="M389.52,346h0Z"/>
          <path class="cls-5" d="M389.56,346c-.67.05-10.2.54-19.81-11.33-5.58-6.89-10.34,0-10.34,0S352.18,346,338.89,346H339s-7.56.75-16.12-7.29A83.84,83.84,0,0,1,312,345.67c3,2.51,15.41,12.43,26.69,12.43,13.12,0,25.18-11.33,25.18-11.33S377.08,358.1,390,358.1c.6,0,1.19,0,1.78-.08a145.38,145.38,0,0,0,10.52-16.53C395.54,346.34,390.07,346.05,389.56,346Z"/>
          <path class="cls-5" d="M207.32,346h0Z"/>
          <path class="cls-5" d="M224,385.26s12.18,11.32,25.09,11.32c13.12,0,25.19-11.32,25.19-11.32s12.19,11.32,25.1,11.32c13.12,0,25.18-11.32,25.18-11.32s12.18,11.32,25.09,11.32h0A147.16,147.16,0,0,0,368.54,383c-4.56,1.35-10.61,2.11-18.63,1.54-.62,0-10.19.58-19.83-11.33-5.57-6.9-10.34,0-10.34,0h0s-7.71,11.32-21,11.32-20.52-11.32-20.52-11.32-4.77-6.9-10.35,0C257.9,385.49,248,384.5,248,384.5h.08c-13.29,0-20.51-11.32-20.51-11.32s-4.76-6.9-10.34,0c-9.58,11.83-19.08,11.38-19.81,11.33a57.34,57.34,0,0,1-17.1-.85,147.48,147.48,0,0,0,18,12.91h.5C212,396.58,224,385.26,224,385.26Z"/>
          <path class="cls-5" d="M349.86,384.5h0Z"/>
          <path class="cls-5" d="M197.38,384.5h0Z"/>
          <path class="cls-5" d="M347.94,308.17l.18-.35"/>
        </g>
        <path class="cls-6" d="M356.56,271.94a83.89,83.89,0,1,0-8.15,36.1H308.18S285,331.4,254.29,318.48s-31.06-38-31.06-38H356.14C356.41,277.64,356.56,274.81,356.56,271.94ZM224.75,255.28c6.4-20.33,25.4-33.65,47.86-33.65,39.27,0,47.9,33.81,47.9,33.81Z"/>
      </g>
    </g>
  </g>
</svg>
