<?xml version="1.0" encoding="utf-8"?>
<!-- Generator: Adobe Illustrator 22.1.0, SVG Export Plug-In . SVG Version: 6.00 Build 0)  -->
<svg version="1.1" id="katman_1" xmlns="http://www.w3.org/2000/svg" xmlns:xlink="http://www.w3.org/1999/xlink" x="0px" y="0px"
	 viewBox="0 0 395.6 435" style="enable-background:new 0 0 395.6 435;" xml:space="preserve">
<style type="text/css">
	.st0{fill:#DA251D;stroke:#1F1A17;stroke-width:7.620000e-02;}
	.st1{fill:#FFFFFF;}
	.st2{fill:#1F1A17;}
	.st3{fill:#DA251D;}
	.st4{fill:#FFFFFF;stroke:#000000;stroke-miterlimit:10;}
</style>
<g id="Слой_x0020_1">
	<g id="_95562904">
		<g>
			<polygon id="_95386400" class="st0" points="89.1,213.8 115.1,168.8 141,123.9 192.9,123.9 244.8,123.9 270.8,168.8 296.7,213.8 
				270.8,258.7 244.8,303.7 192.9,303.7 141,303.7 115.1,258.7 			"/>
			<g>
				<polygon id="_95870408" class="st1" points="197,45 186.5,52.7 191.6,142.9 197,142.9 202.3,142.9 207.4,52.7 				"/>
				<path id="_958704081" class="st2" d="M185.6,52.8L186,52l10.5-7.7l1,1.4L187,53.4L185.6,52.8z M185.6,52.8l0-0.5L186,52
					L185.6,52.8L185.6,52.8z M191.6,143.7l-0.8-0.8l-5.2-90.1l1.7-0.1l5.2,90.1L191.6,143.7L191.6,143.7z M191.6,143.7h-0.8l0-0.8
					L191.6,143.7z M197,143.7L197,143.7l-5.3,0V142l5.3,0V143.7z M197,143.7L197,143.7L197,143.7L197,143.7z M203.1,142.9l-0.8,0.8
					l-5.3,0V142l5.3,0L203.1,142.9z M203.1,142.9l0,0.8l-0.8,0L203.1,142.9L203.1,142.9z M207.9,52l0.3,0.7l-5.2,90.1l-1.7-0.1
					l5.2-90.1L207.9,52z M207.9,52l0.4,0.3l0,0.5L207.9,52L207.9,52z M196.5,44.3h1l10.5,7.7l-1,1.4l-10.5-7.7
					C196.5,45.6,196.5,44.3,196.5,44.3z M196.5,44.3l0.5-0.4l0.5,0.4H196.5L196.5,44.3z"/>
			</g>
			<g>
				<polygon id="_94196640" class="st1" points="202.3,142.9 208.3,32.9 216,23.5 221.9,33.1 211.4,142.3 				"/>
				<path id="_941966401" class="st2" d="M207.6,32.4l1.5,0.6l-6,109.9l-1.7-0.1l6-109.9L207.6,32.4L207.6,32.4z M207.5,32.9l0-0.3
					l0.2-0.2C207.6,32.4,207.5,32.9,207.5,32.9z M216.8,23l-0.1,1l-7.7,9.5l-1.3-1.1l7.7-9.5L216.8,23z M215.4,22.9l0.8-0.9l0.6,1
					L215.4,22.9z M222.7,33.2l-1.6,0.4l-5.8-9.6l1.4-0.9l5.8,9.6L222.7,33.2L222.7,33.2z M222.6,32.7l0.1,0.2l0,0.3
					C222.7,33.2,222.6,32.7,222.6,32.7z M211.4,143.2l-0.9-0.9L221,33l1.7,0.2l-10.5,109.2L211.4,143.2L211.4,143.2z M212.2,142.4
					l-0.1,0.7l-0.7,0L212.2,142.4L212.2,142.4z M201.4,142.8l0.8-0.8l9.1-0.5l0.1,1.7l-9.1,0.5L201.4,142.8z M202.3,143.7l-0.9,0.1
					l0.1-0.9L202.3,143.7z"/>
			</g>
			<g>
				<polygon class="st1" points="211.9,137.2 220.5,138 228.9,74.4 224.5,65.6 218,73.7 				"/>
				<path id="_x31_" class="st2" d="M221.3,138.2l-0.9,0.7l-8.6-0.8l0.2-1.7l8.6,0.8L221.3,138.2z M221.3,138.2l-0.1,0.8l-0.8-0.1
					L221.3,138.2L221.3,138.2z M229.7,74l0.1,0.5l-8.4,63.7l-1.7-0.2l8.4-63.7L229.7,74z M229.7,74l0.1,0.2l0,0.3L229.7,74z
					 M223.8,65.1l1.4,0.1l4.5,8.8l-1.5,0.8l-4.5-8.8L223.8,65.1z M223.8,65.1l0.8-1l0.6,1.2C225.2,65.2,223.8,65.1,223.8,65.1z
					 M217.1,73.6l0.2-0.4l6.5-8.1l1.3,1l-6.5,8.1L217.1,73.6L217.1,73.6z M217.1,73.6l0-0.2l0.2-0.2L217.1,73.6z M211.8,138.1
					l-0.8-0.9l6.1-63.5l1.7,0.2l-6.1,63.5L211.8,138.1z M211.8,138.1L211,138l0.1-0.8L211.8,138.1z"/>
			</g>
			<g>
				<polygon class="st1" points="220.5,138 231.3,55.5 241.1,44.6 245.6,57.4 226.9,137.9 				"/>
				<path id="_x31__1_" class="st2" d="M230.7,54.9l1.5,0.7l-10.8,82.6l-1.7-0.2l10.8-82.6L230.7,54.9L230.7,54.9z M230.5,55.4
					l0-0.3l0.2-0.2L230.5,55.4z M241.9,44.4l-0.2,0.8L232,56l-1.2-1.1l9.8-10.8L241.9,44.4z M240.5,44.1l0.9-1.1l0.5,1.3L240.5,44.1
					z M246.4,57.5l-1.6,0.1l-4.5-12.7l1.6-0.6l4.5,12.7L246.4,57.5z M246.4,57.1l0.1,0.2l-0.1,0.2L246.4,57.1z M226.9,138.7l-0.8-1
					l18.7-80.5l1.6,0.4l-18.7,80.5L226.9,138.7L226.9,138.7z M227.7,138.1l-0.1,0.6l-0.7,0L227.7,138.1L227.7,138.1z M219.7,137.9
					l0.8-0.7l6.4-0.2l0,1.7l-6.4,0.2L219.7,137.9z M220.5,138.9l-1,0l0.1-1L220.5,138.9L220.5,138.9z"/>
			</g>
			<g>
				<polygon class="st1" points="191.6,142.9 185.6,32.9 177.8,23.5 172,33.1 182.5,142.3 				"/>
				<path id="_x31__2_" class="st2" d="M186.2,32.4l0.2,0.5l6,109.9l-1.7,0.1l-6-109.9L186.2,32.4L186.2,32.4z M186.2,32.4l0.2,0.2
					l0,0.3L186.2,32.4z M177.1,23l1.4-0.1l7.7,9.5l-1.3,1.1l-7.7-9.5L177.1,23z M177.1,23l0.6-1l0.8,0.9L177.1,23z M171.2,33.2
					l0.1-0.5l5.8-9.6l1.4,0.9l-5.8,9.6C172.7,33.5,171.2,33.2,171.2,33.2z M171.2,33.2l0-0.3l0.1-0.2
					C171.3,32.7,171.2,33.2,171.2,33.2z M182.4,143.2l-0.8-0.8L171.2,33.2l1.7-0.2l10.5,109.2L182.4,143.2L182.4,143.2z
					 M182.4,143.2l-0.7,0l-0.1-0.7L182.4,143.2L182.4,143.2z M192.4,142.8l-0.9,0.9l-9.1-0.5l0.1-1.7l9.1,0.5L192.4,142.8z
					 M192.4,142.8l0.1,0.9l-0.9-0.1L192.4,142.8z"/>
			</g>
			<g>
				<polygon class="st1" points="182,137.2 173.4,138 165,74.4 169.4,65.6 175.9,73.7 				"/>
				<path id="_x31__3_" class="st2" d="M172.5,138.2l0.8-0.9l8.6-0.8l0.2,1.7l-8.6,0.8L172.5,138.2L172.5,138.2z M173.5,138.9
					l-0.8,0.1l-0.1-0.8L173.5,138.9L173.5,138.9z M164.2,74l1.6,0.3l8.4,63.7l-1.7,0.2l-8.4-63.7L164.2,74L164.2,74z M164.1,74.5
					l0-0.3l0.1-0.2L164.1,74.5L164.1,74.5z M170.1,65.1l0.1,0.9l-4.5,8.8l-1.5-0.8l4.5-8.8L170.1,65.1z M168.7,65.2l0.6-1.2l0.8,1
					C170.1,65.1,168.7,65.2,168.7,65.2z M176.7,73.6l-1.5,0.6l-6.5-8.1l1.3-1l6.5,8.1L176.7,73.6z M176.5,73.2l0.2,0.2l0,0.2
					L176.5,73.2z M182.1,138.1l-0.9-0.8l-6.1-63.5l1.7-0.2l6.1,63.5L182.1,138.1z M182.8,137.1l0.1,0.8l-0.8,0.1L182.8,137.1z"/>
			</g>
			<g>
				<polygon class="st1" points="173.4,138 162.5,55.5 152.8,44.6 148.3,57.4 167,137.9 				"/>
				<path id="_x31__4_" class="st2" d="M163.2,54.9l0.2,0.5l10.8,82.6l-1.7,0.2l-10.8-82.6L163.2,54.9z M163.2,54.9l0.2,0.2l0,0.3
					L163.2,54.9z M152,44.4l1.4-0.3l9.8,10.8l-1.2,1.1l-9.8-10.8C152.1,45.2,152,44.4,152,44.4z M152,44.4l0.5-1.3l0.9,1.1L152,44.4
					z M147.5,57.6l0-0.5l4.5-12.7l1.6,0.6l-4.5,12.7C149.1,57.6,147.5,57.6,147.5,57.6z M147.5,57.6l-0.1-0.2l0.1-0.2L147.5,57.6z
					 M167,138.7l-0.8-0.7l-18.7-80.5l1.6-0.4l18.7,80.5L167,138.7L167,138.7z M167,138.7l-0.7,0l-0.1-0.6L167,138.7L167,138.7z
					 M174.2,137.9l-0.9,1l-6.4-0.2l0-1.7l6.4,0.2L174.2,137.9z M174.2,137.9l0.1,1l-1,0L174.2,137.9z"/>
			</g>
			<g>
				<polygon class="st3" points="196.8,36.2 192.2,22.9 178.2,22.7 189.5,14.2 185.3,0.8 196.8,8.9 208.3,0.8 204.1,14.3 
					215.4,22.7 201.3,22.9 				"/>
				<path id="_x31__5_" class="st2" d="M192.3,22l0.8,0.6l4.5,13.3l-1.6,0.5l-4.5-13.3C191.4,23.1,192.3,22,192.3,22z M193,22.6
					l-1.6,0.5l0,0l0,0l0,0l0,0l0,0l0,0v0l0,0l0,0l0,0l0,0l0,0l0,0l0,0l0,0l0,0l0,0l0,0l0,0l0,0l0,0l0,0l0,0l0,0l0,0l0,0l0,0l0,0l0,0
					l0,0l0,0l0,0l0,0l0,0l0,0l0,0l0,0l0,0h0l0,0l0,0l0,0l0,0l0,0l0,0l0,0l0,0l0,0l0,0l0,0l0,0l0,0l0,0l0,0l0,0l0,0l0,0l0,0l0,0l0,0
					l0,0L193,22.6L193,22.6L193,22.6L193,22.6z M177.7,22l0.5-0.2l14,0.2l0,1.7l-14-0.2L177.7,22L177.7,22z M178.2,21.8l0,1.7l0,0
					l0,0l0,0l0,0l0,0l0,0l0,0l0,0l0,0l0,0l0,0l0,0l0,0l0,0l0,0l0,0l0,0l0,0l0,0l0,0l0,0l0,0l0,0l0,0l0,0l0,0l0,0l0,0l0,0l0,0l0,0
					l0,0l0,0l0,0l0,0l0,0l0,0l0,0l0,0l0,0l0,0l0,0l0,0l0,0l0,0l0,0l0,0l0,0l0,0l0,0l0,0l0,0l0,0l0,0l0,0l0,0l0,0l0,0l0,0l0,0l0,0
					L178.2,21.8L178.2,21.8L178.2,21.8L178.2,21.8z M190.3,14l-0.3,0.9l-11.3,8.4l-1-1.3l11.3-8.4L190.3,14z M190,14.9l-1-1.3l0,0
					l0,0l0,0l0,0l0,0l0,0l0,0l0,0l0,0l0,0l0,0l0,0l0,0l0,0l0,0l0,0l0,0l0,0l0,0l0,0l0,0l0,0l0,0l0,0l0,0l0,0l0,0l0,0l0,0l0,0l0,0
					l0,0l0,0l0,0l0,0l0,0l0,0l0,0l0,0l0,0l0,0l0,0l0,0l0,0l0,0l0,0l0,0l0,0l0,0l0,0l0,0l0,0l0,0l0,0l0,0l0,0l0,0l0,0l0,0l0,0
					L190,14.9L190,14.9L190,14.9L190,14.9L190,14.9z M185.8,0.2l0.3,0.4l4.2,13.4l-1.6,0.5l-4.2-13.4C184.5,1.1,185.8,0.2,185.8,0.2
					z M186.1,0.6l-1.6,0.5l0,0l0,0l0,0l0,0l0,0l0,0l0,0l0,0l0,0l0,0l0,0l0,0l0,0l0,0l0,0l0,0l0,0l0,0l0,0l0,0l0,0l0,0l0,0l0,0l0,0
					l0,0l0,0l0,0l0,0l0,0l0,0l0,0l0,0l0,0l0,0l0,0l0,0l0,0l0,0l0,0l0,0l0,0l0,0l0,0l0,0l0,0l0,0l0,0l0,0l0,0l0,0l0,0l0,0l0,0l0,0
					l0,0l0,0l0,0l0,0l0,0l0,0L186.1,0.6L186.1,0.6L186.1,0.6L186.1,0.6z M197.3,9.6h-1l-11.5-8.1l1-1.4l11.5,8.1V9.6z M196.3,9.6
					l1-1.4l0,0l0,0l0,0l0,0l0,0l0,0l0,0l0,0l0,0l0,0l0,0l0,0l0,0l0,0l0,0l0,0l0,0l0,0l0,0l0,0l0,0l0,0l0,0l0,0l0,0l0,0l0,0l0,0l0,0
					l0,0l0,0l0,0l0,0l0,0l0,0l0,0l0,0l0,0l0,0l0,0l0,0l0,0l0,0l0,0l0,0l0,0l0,0l0,0l0,0l0,0l0,0l0,0l0,0l0,0l0,0l0,0l0,0l0,0l0,0
					l0,0l0,0L196.3,9.6L196.3,9.6L196.3,9.6L196.3,9.6z M209.1,1.1l-0.3,0.4l-11.5,8.1l-1-1.4l11.5-8.1
					C207.8,0.2,209.1,1.1,209.1,1.1z M208.8,1.5l-1-1.4l0,0l0,0l0,0l0,0l0,0l0,0l0,0l0,0l0,0l0,0l0,0l0,0l0,0l0,0l0,0l0,0l0,0l0,0
					l0,0l0,0l0,0l0,0l0,0l0,0l0,0l0,0l0,0l0,0l0,0l0,0l0,0l0,0l0,0l0,0l0,0l0,0l0,0l0,0l0,0l0,0l0,0l0,0l0,0l0,0l0,0l0,0l0,0l0,0
					l0,0l0,0l0,0l0,0l0,0l0,0l0,0l0,0l0,0l0,0l0,0l0,0L208.8,1.5L208.8,1.5L208.8,1.5L208.8,1.5L208.8,1.5z M203.6,15l-0.3-0.9
					l4.1-13.4l1.6,0.5l-4.1,13.4L203.6,15L203.6,15z M203.3,14l1.6,0.5l0,0l0,0l0,0l0,0l0,0l0,0l0,0l0,0l0,0l0,0l0,0l0,0l0,0l0,0
					l0,0l0,0l0,0l0,0l0,0l0,0l0,0l0,0l0,0l0,0l0,0l0,0l0,0l0,0l0,0l0,0l0,0l0,0l0,0l0,0l0,0l0,0l0,0l0,0l0,0l0,0l0,0l0,0l0,0l0,0
					l0,0l0,0l0,0l0,0l0,0l0,0l0,0l0,0l0,0l0,0l0,0l0,0l0,0l0,0l0,0l0,0l0,0L203.3,14L203.3,14L203.3,14L203.3,14z M215.4,23.5
					l-0.5-0.2L203.6,15l1-1.4l11.2,8.4L215.4,23.5z M214.9,23.4l1-1.4l0,0l0,0l0,0l0,0l0,0l0,0l0,0l0,0l0,0l0,0l0,0l0,0l0,0l0,0l0,0
					l0,0l0,0l0,0l0,0l0,0l0,0l0,0l0,0l0,0l0,0l0,0l0,0l0,0l0,0l0,0l0,0l0,0l0,0l0,0l0,0l0,0l0,0l0,0l0,0l0,0l0,0l0,0l0,0l0,0l0,0
					l0,0l0,0l0,0l0,0l0,0l0,0l0,0l0,0l0,0l0,0l0,0l0,0l0,0l0,0l0,0l0,0L214.9,23.4L214.9,23.4L214.9,23.4L214.9,23.4z M200.5,22.6
					l0.8-0.6l14.1-0.2l0,1.7l-14.1,0.2L200.5,22.6z M201.3,22l0,1.7l0,0l0,0l0,0l0,0l0,0l0,0l0,0l0,0l0,0l0,0l0,0l0,0l0,0l0,0l0,0
					l0,0l0,0l0,0l0,0l0,0l0,0l0,0l0,0l0,0l0,0l0,0l0,0l0,0l0,0l0,0l0,0l0,0l0,0l0,0l0,0l0,0l0,0l0,0l0,0l0,0l0,0l0,0l0,0l0,0l0,0
					l0,0l0,0l0,0l0,0l0,0l0,0l0,0l0,0l0,0l0,0l0,0l0,0l0,0l0,0l0,0l0,0L201.3,22L201.3,22C201.2,22,201.3,22,201.3,22z M196,36.4
					v-0.5l4.5-13.3l1.6,0.5l-4.5,13.3H196z M196,35.9l1.6,0.5l0,0l0,0l0,0l0,0l0,0l0,0l0,0l0,0l0,0l0,0l0,0l0,0l0,0l0,0l0,0l0,0l0,0
					l0,0l0,0l0,0l0,0l0,0l0,0l0,0l0,0h0l0,0l0,0l0,0l0,0l0,0l0,0l0,0l0,0l0,0l0,0l0,0l0,0l0,0l0,0l0,0l0,0l0,0l0,0l0,0l0,0l0,0l0,0
					l0,0l0,0l0,0l0,0l0,0l0,0l0,0l0,0l0,0v0l0,0l0,0l0,0L196,35.9L196,35.9L196,35.9L196,35.9z"/>
			</g>
			<g>
				<path class="st1" d="M196.9,155.2c49.4,0,62.8-41.2,62.8-60.4s-9.1-36.5-9.1-36.5c1.9,10.5,5.2,72.9-53.7,72.9
					c-58.4,0-55.7-62.4-53.7-72.9c0,0-9.1,17.3-9.1,36.5S149,155.2,196.9,155.2L196.9,155.2z"/>
				<path id="_x31__6_" class="st2" d="M258.9,94.9h1.7l0,0l0,1.9l-0.1,2l-0.2,2.1l-0.3,2.2l-0.4,2.3l-0.5,2.4l-0.6,2.4l-0.7,2.5
					l-0.8,2.5l-0.9,2.5l-1.1,2.5l-1.2,2.5l-1.3,2.5l-1.5,2.5l-1.6,2.5l-1.7,2.4l-1.9,2.4l-2,2.3l-2.2,2.2l-2.4,2.1l-2.5,2l-2.7,1.9
					l-2.9,1.8l-3,1.7l-3.2,1.5l-3.4,1.3l-3.6,1.2l-3.8,1l-4,0.8l-4.2,0.6l-4.4,0.4l-4.6,0.1v-1.7l4.5-0.1l4.3-0.3l4.1-0.6l3.9-0.8
					l3.7-1l3.5-1.1l3.3-1.3l3.1-1.5l2.9-1.6l2.8-1.7l2.6-1.9l2.4-2l2.3-2.1l2.1-2.2l2-2.2l1.8-2.3l1.7-2.4l1.6-2.4l1.4-2.5l1.3-2.5
					l1.2-2.5l1-2.5l0.9-2.5l0.8-2.4l0.7-2.4l0.6-2.4l0.5-2.3l0.4-2.2l0.3-2.1l0.2-2.1l0.1-1.9L258.9,94.9L258.9,94.9L258.9,94.9z
					 M251.5,58.2l-1.7,0.3l1.6-0.5l0,0.1L251.5,58.2l0.2,0.2l0.2,0.3l0.2,0.4l0.2,0.5l0.3,0.6l0.3,0.7l0.3,0.8l0.4,0.8l0.4,0.9
					l0.4,1l0.4,1.1l0.4,1.1l0.4,1.2l0.4,1.2l0.4,1.3l0.4,1.4l0.4,1.4l0.4,1.5l0.4,1.5l0.4,1.5l0.4,1.6l0.3,1.6l0.3,1.7l0.3,1.7
					l0.2,1.7l0.2,1.7l0.2,1.8l0.1,1.8l0.1,1.8l0,1.8h-1.7l0-1.8l-0.1-1.8l-0.1-1.7l-0.2-1.7l-0.2-1.7l-0.2-1.7l-0.3-1.7l-0.3-1.6
					l-0.3-1.6l-0.4-1.5l-0.4-1.5l-0.4-1.5l-0.4-1.4l-0.4-1.4l-0.4-1.3l-0.4-1.3l-0.4-1.2l-0.4-1.2l-0.4-1.1l-0.4-1l-0.4-1l-0.4-0.9
					l-0.4-0.8l-0.3-0.7l-0.3-0.7l-0.3-0.6l-0.2-0.5l-0.2-0.4l-0.2-0.3L250,59l-0.1-0.1l0,0L251.5,58.2L251.5,58.2z M196.9,132.2
					v-1.7l0,0l5.3-0.2l4.9-0.5l4.6-0.8l4.3-1.1l3.9-1.4l3.6-1.7l3.3-1.9l3.1-2.1l2.8-2.3l2.5-2.5l2.3-2.6l2.1-2.8l1.8-2.9l1.6-3
					l1.4-3.1l1.3-3.1l1.1-3.1l0.9-3.2l0.8-3.1l0.6-3.1l0.5-3.1l0.4-3l0.3-2.9l0.2-2.8l0.1-2.7l0-2.5l0-2.3l-0.1-2.1l-0.1-1.9
					l-0.2-1.7l-0.2-1.4l-0.2-1.1l1.7-0.3l0.2,1.2l0.2,1.4l0.2,1.7l0.1,1.9l0.1,2.2l0,2.4l0,2.5l-0.1,2.7l-0.2,2.8l-0.3,3l-0.4,3.1
					l-0.5,3.1l-0.6,3.2l-0.8,3.2l-0.9,3.2l-1.1,3.2l-1.3,3.2l-1.5,3.1l-1.7,3.1l-1.9,3l-2.1,2.9l-2.4,2.7l-2.6,2.6l-2.9,2.4
					l-3.2,2.2l-3.5,2l-3.8,1.7l-4.1,1.5l-4.4,1.2l-4.7,0.9l-5.1,0.5L196.9,132.2L196.9,132.2L196.9,132.2z M144,58.8l-1.5-0.8
					l1.6,0.5l-0.2,1.1l-0.2,1.4l-0.2,1.7l-0.1,1.9l-0.1,2.1l0,2.3l0,2.5l0.1,2.7l0.2,2.8l0.3,2.9l0.4,3l0.5,3.1l0.6,3.1l0.8,3.1
					l0.9,3.2l1.1,3.1l1.3,3.1l1.5,3.1l1.6,3l1.9,2.9l2.1,2.8l2.3,2.6l2.5,2.5l2.8,2.3l3,2.1l3.3,1.9l3.6,1.7l3.9,1.4l4.2,1.1
					l4.6,0.8l4.9,0.5l5.2,0.2v1.7l-5.4-0.2l-5-0.5l-4.7-0.9l-4.4-1.2l-4-1.5l-3.7-1.7l-3.5-2l-3.2-2.2l-2.9-2.4l-2.6-2.6l-2.4-2.7
					l-2.1-2.9l-1.9-3l-1.7-3.1l-1.5-3.1l-1.3-3.2l-1.1-3.2l-1-3.2l-0.8-3.2l-0.7-3.2l-0.5-3.1l-0.4-3.1l-0.3-3l-0.2-2.8l-0.1-2.7
					l0-2.5l0-2.4l0.1-2.2l0.1-1.9l0.2-1.7l0.2-1.4l0.2-1.2L144,58.8L144,58.8z M134.9,94.9h-1.7l0,0l0-1.8l0.1-1.8l0.1-1.8l0.2-1.8
					l0.2-1.7l0.2-1.7l0.3-1.7l0.3-1.7l0.3-1.6l0.4-1.6l0.4-1.5l0.4-1.5l0.4-1.5l0.4-1.4l0.4-1.4l0.4-1.3l0.4-1.2l0.4-1.2l0.4-1.1
					l0.4-1.1l0.4-1l0.4-0.9l0.4-0.8L141,61l0.3-0.7l0.3-0.6l0.2-0.5l0.2-0.4l0.2-0.3l0.1-0.2l0.1-0.2l0-0.1l1.5,0.8l0,0l-0.1,0.1
					l-0.1,0.2l-0.2,0.3l-0.2,0.4l-0.2,0.5l-0.3,0.6l-0.3,0.7l-0.3,0.7l-0.4,0.8l-0.4,0.9l-0.4,1l-0.4,1l-0.4,1.1l-0.4,1.2l-0.4,1.2
					L139,71l-0.4,1.3l-0.4,1.4l-0.4,1.4l-0.4,1.5l-0.4,1.5l-0.4,1.5l-0.3,1.6l-0.3,1.6l-0.3,1.7l-0.2,1.7l-0.2,1.7l-0.2,1.7
					l-0.1,1.7l-0.1,1.8L134.9,94.9L134.9,94.9L134.9,94.9z M196.9,154.4v1.7l0,0l-4.4-0.1l-4.3-0.4l-4.1-0.6l-3.9-0.8l-3.7-1
					l-3.5-1.2l-3.4-1.3l-3.2-1.5l-3-1.7l-2.8-1.8l-2.7-1.9l-2.5-2l-2.4-2.1l-2.2-2.2l-2.1-2.3l-1.9-2.4l-1.8-2.4l-1.6-2.5l-1.5-2.5
					l-1.4-2.5l-1.2-2.5l-1.1-2.5l-1-2.5l-0.9-2.5l-0.8-2.5l-0.6-2.4l-0.5-2.4l-0.4-2.3l-0.3-2.2l-0.2-2.1l-0.1-2l0-1.9h1.7l0,1.8
					l0.1,1.9l0.2,2l0.3,2.1l0.4,2.2l0.5,2.3l0.6,2.4l0.7,2.4l0.9,2.4l1,2.5l1.1,2.5l1.2,2.5l1.3,2.5l1.5,2.5l1.6,2.4l1.7,2.4
					l1.9,2.3l2,2.2l2.2,2.2l2.3,2.1l2.4,2l2.6,1.9l2.8,1.7l2.9,1.6l3.1,1.5l3.3,1.3l3.4,1.1l3.6,1l3.8,0.8l4,0.6l4.2,0.3
					L196.9,154.4L196.9,154.4L196.9,154.4z"/>
			</g>
			<g>
				<polygon class="st3" points="44.9,130.6 46.3,143.5 127,184.1 129.7,179.5 132.3,174.9 56.8,125.4 				"/>
				<path id="_x31__7_" class="st2" d="M46,144.3l-0.5-0.7L44,130.7l1.7-0.2l1.5,12.9L46,144.3z M46,144.3l-0.4-0.2l-0.1-0.5
					L46,144.3z M127.7,184.5l-1.1,0.3L46,144.3l0.8-1.5l80.6,40.6L127.7,184.5L127.7,184.5z M127.7,184.5l-0.4,0.7l-0.7-0.4
					L127.7,184.5L127.7,184.5z M130.4,179.9L130.4,179.9l-2.7,4.6l-1.5-0.8l2.7-4.6L130.4,179.9z M130.4,179.9L130.4,179.9
					L130.4,179.9L130.4,179.9z M132.8,174.2l0.3,1.1l-2.7,4.6l-1.5-0.8l2.7-4.6L132.8,174.2L132.8,174.2z M132.8,174.2l0.7,0.4
					l-0.4,0.7L132.8,174.2L132.8,174.2z M56.5,124.6l0.8,0.1l75.5,49.5l-0.9,1.4l-75.5-49.5L56.5,124.6L56.5,124.6z M56.5,124.6
					l0.4-0.2l0.4,0.2L56.5,124.6z M44,130.7l0.5-0.9l11.9-5.2l0.7,1.5l-11.9,5.2C45.2,131.3,44,130.7,44,130.7z M44,130.7L44,130
					l0.6-0.2L44,130.7z"/>
			</g>
			<g>
				<polygon class="st3" points="132.3,174.9 40.1,114.7 35.8,103.3 47.1,103 136.4,166.7 				"/>
				<path id="_x31__8_" class="st2" d="M39.3,115l1.2-1l92.2,60.2l-0.9,1.4l-92.2-60.2C39.7,115.4,39.3,115,39.3,115z M39.7,115.4
					l-0.2-0.2l-0.1-0.3C39.3,115,39.7,115.4,39.7,115.4z M35.8,102.4l0.8,0.5l4.3,11.4l-1.6,0.6L35,103.6L35.8,102.4L35.8,102.4z
					 M35,103.6l-0.4-1.1l1.2,0C35.8,102.4,35,103.6,35,103.6z M47.5,102.4l-0.5,1.5l-11.3,0.2l0-1.7l11.3-0.2L47.5,102.4z M47,102.2
					l0.3,0l0.2,0.2L47,102.2L47,102.2z M137.2,167.1l-1.2,0.3l-89.4-63.7l1-1.4l89.4,63.7L137.2,167.1L137.2,167.1z M136.9,166.1
					l0.6,0.4l-0.3,0.6L136.9,166.1z M131.9,175.6l-0.3-1.1l4.1-8.1l1.5,0.8l-4.1,8.1L131.9,175.6z M133.1,175.3l-0.4,0.8l-0.8-0.5
					L133.1,175.3z"/>
			</g>
			<g>
				<polygon class="st3" points="132.2,163.8 137.3,156.7 86.3,117.6 76.5,117.1 80.3,126.7 				"/>
				<path id="_x31__9_" class="st2" d="M137.8,156l0.2,1.2l-5,7l-1.4-1l5-7L137.8,156z M137.8,156l0.6,0.5l-0.5,0.7L137.8,156z
					 M86.4,116.7l0.5,0.2l50.9,39.1l-1,1.3l-50.9-39.1L86.4,116.7L86.4,116.7z M86.4,116.7l0.3,0l0.2,0.2L86.4,116.7z M75.7,117.4
					l0.8-1.1l9.8,0.5l-0.1,1.7l-9.8-0.5C76.5,117.9,75.7,117.4,75.7,117.4z M75.7,117.4l-0.5-1.2l1.3,0.1
					C76.6,116.2,75.7,117.4,75.7,117.4z M79.8,127.4l-0.3-0.4l-3.8-9.7l1.6-0.6l3.8,9.7C81.1,126.4,79.8,127.4,79.8,127.4z
					 M79.8,127.4l-0.2-0.1l-0.1-0.2L79.8,127.4L79.8,127.4z M132.9,164.2l-1.2,0.2l-52-37l1-1.4l52,37L132.9,164.2z M132.9,164.2
					l-0.5,0.7l-0.7-0.5L132.9,164.2z"/>
			</g>
			<g>
				<polygon class="st3" points="137.3,156.7 71.2,106 66.7,92.1 79.9,94.6 140.3,151.1 				"/>
				<path id="_x31__10_" class="st2" d="M70.4,106.3l1.3-0.9l66.1,50.7l-1,1.3l-66.1-50.7C70.6,106.7,70.4,106.3,70.4,106.3z
					 M70.6,106.7l-0.2-0.2l-0.1-0.3L70.6,106.7L70.6,106.7z M66.8,91.3l0.6,0.6l4.5,13.9l-1.6,0.5l-4.5-13.9L66.8,91.3z M65.9,92.4
					l-0.4-1.3l1.4,0.3C66.8,91.3,65.9,92.4,65.9,92.4z M80.5,94l-0.7,1.4L66.5,93l0.3-1.7l13.3,2.5C80.1,93.8,80.5,94,80.5,94z
					 M80.1,93.8l0.2,0l0.2,0.2C80.5,94,80.1,93.8,80.1,93.8z M141,151.5l-1.3,0.2L79.3,95.3l1.2-1.2l60.4,56.5L141,151.5z
					 M140.9,150.5l0.5,0.4l-0.3,0.6L140.9,150.5L140.9,150.5z M136.7,157.4l-0.2-1.1l3-5.6l1.5,0.8l-3,5.6L136.7,157.4L136.7,157.4z
					 M138,157.1l-0.5,0.9l-0.8-0.6L138,157.1L138,157.1z"/>
			</g>
			<g>
				<polygon class="st3" points="127,184.2 28.8,134.4 16.7,136.4 22.1,146.2 122,191.8 				"/>
				<path id="_x31__11_" class="st2" d="M28.6,133.6l0.5,0.1l98.2,49.8l-0.8,1.5l-98.2-49.8L28.6,133.6L28.6,133.6z M28.6,133.6
					l0.3,0l0.2,0.1L28.6,133.6L28.6,133.6z M16,136.8l0.6-1.2l12.1-2l0.3,1.7l-12.1,2L16,136.8L16,136.8z M16,136.8l-0.6-1l1.2-0.2
					L16,136.8z M21.8,147l-0.4-0.4l-5.4-9.9l1.5-0.8l5.4,9.9C22.9,145.8,21.8,147,21.8,147z M21.8,147l-0.3-0.1l-0.1-0.2
					C21.4,146.6,21.8,147,21.8,147z M122.7,192.2l-1.1,0.3L21.8,147l0.7-1.5l99.9,45.5L122.7,192.2L122.7,192.2z M122.7,192.2
					l-0.4,0.6l-0.7-0.3L122.7,192.2z M127.4,183.4l0.3,1.2l-5,7.6l-1.4-0.9l5-7.6L127.4,183.4L127.4,183.4z M127.4,183.4l0.8,0.4
					l-0.5,0.8L127.4,183.4L127.4,183.4z"/>
			</g>
			<g>
				<polygon class="st3" points="117.3,189.6 113.7,197.5 54.4,173 49,164.7 59.2,163.2 				"/>
				<path id="_x31__12_" class="st2" d="M113.4,198.3l-0.4-1.1l3.6-7.9l1.5,0.7l-3.6,7.9L113.4,198.3L113.4,198.3z M114.5,197.9
					l-0.3,0.7l-0.8-0.3L114.5,197.9L114.5,197.9z M53.7,173.4l1-1.2l59.3,24.5l-0.6,1.6L54,173.8L53.7,173.4L53.7,173.4z M54,173.8
					l-0.2-0.1l-0.1-0.2L54,173.8z M48.9,163.9l0.8,0.4l5.4,8.3l-1.4,0.9l-5.4-8.3L48.9,163.9L48.9,163.9z M48.3,165.2l-0.7-1.1
					l1.3-0.2L48.3,165.2z M59.6,162.4l-0.2,1.6l-10.2,1.6l-0.3-1.7l10.2-1.6L59.6,162.4L59.6,162.4z M59.1,162.3l0.2,0l0.2,0.1
					L59.1,162.3L59.1,162.3z M118.1,190l-1.1,0.4l-58-26.5l0.7-1.5l58,26.5L118.1,190z M117.6,188.9l0.8,0.3l-0.3,0.8L117.6,188.9
					L117.6,188.9z"/>
			</g>
			<g>
				<polygon class="st3" points="113.7,197.5 36.8,165.6 22.5,168.7 31.3,178.9 110.4,202.9 				"/>
				<path id="_x31__13_" class="st2" d="M36.6,164.8l0.5,0l76.9,31.9l-0.6,1.6l-76.9-31.9C36.4,166.4,36.6,164.8,36.6,164.8z
					 M36.6,164.8l0.3-0.1l0.2,0.1L36.6,164.8z M21.8,169.2l0.5-1.4l14.3-3.1l0.4,1.6l-14.3,3.1L21.8,169.2z M21.8,169.2l-0.9-1.1
					l1.4-0.3L21.8,169.2z M31,179.7l-0.4-0.3l-8.8-10.2l1.3-1.1l8.8,10.2L31,179.7L31,179.7z M31,179.7l-0.2-0.1l-0.2-0.2
					C30.6,179.5,31,179.7,31,179.7z M111.1,203.4l-1,0.4l-79.1-24l0.5-1.6l79.1,24L111.1,203.4z M111.1,203.4l-0.3,0.6l-0.6-0.2
					L111.1,203.4z M114,196.7l0.4,1.2l-3.3,5.4l-1.4-0.9l3.3-5.4L114,196.7L114,196.7z M114,196.7l0.9,0.4l-0.5,0.8L114,196.7z"/>
			</g>
			<g>
				<polygon class="st1" points="37.2,126.3 23.4,123.6 16.2,135.6 14.5,121.7 0.8,118.6 13.6,112.7 12.3,98.7 21.9,109 34.8,103.5 
					27.9,115.8 				"/>
				<path id="_x31__14_" class="st2" d="M22.7,123.2l0.9-0.4l13.8,2.7l-0.3,1.7l-13.8-2.7C23.2,124.4,22.7,123.2,22.7,123.2z
					 M23.5,122.8l-0.3,1.7l0,0l0,0l0,0l0,0l0,0l0,0l0,0l0,0l0,0l0,0l0,0l0,0l0,0l0,0l0,0l0,0l0,0l0,0l0,0l0,0l0,0l0,0l0,0l0,0l0,0
					l0,0l0,0l0,0l0,0l0,0l0,0l0,0l0,0l0,0l0,0l0,0l0,0l0,0l0,0l0,0l0,0l0,0l0,0l0,0l0,0l0,0l0,0l0,0l0,0l0,0l0,0l0,0l0,0l0,0l0,0
					l0,0l0,0l0,0l0,0l0,0l0,0L23.5,122.8L23.5,122.8L23.5,122.8L23.5,122.8z M15.4,135.7l0.1-0.5l7.2-12.1l1.4,0.9l-7.2,12.1
					C16.9,136.1,15.4,135.7,15.4,135.7z M15.5,135.2l1.4,0.9l0,0l0,0l0,0l0,0l0,0l0,0l0,0l0,0l0,0l0,0l0,0l0,0l0,0l0,0l0,0l0,0l0,0
					l0,0l0,0l0,0l0,0l0,0l0,0l0,0l0,0l0,0l0,0l0,0l0,0l0,0l0,0l0,0l0,0l0,0l0,0l0,0l0,0l0,0l0,0l0,0l0,0l0,0l0,0l0,0l0,0l0,0l0,0
					l0,0l0,0l0,0l0,0l0,0l0,0l0,0l0,0l0,0l0,0l0,0l0,0l0,0l0,0L15.5,135.2L15.5,135.2L15.5,135.2L15.5,135.2z M14.7,120.9l0.6,0.7
					l1.7,14l-1.7,0.2l-1.7-14L14.7,120.9z M15.4,121.6l-1.7,0.2l0,0l0,0l0,0l0,0l0,0l0,0l0,0l0,0l0,0l0,0l0,0l0,0l0,0l0,0l0,0l0,0
					l0,0l0,0l0,0l0,0l0,0l0,0l0,0l0,0l0,0l0,0l0,0l0,0l0,0l0,0l0,0l0,0l0,0l0,0l0,0l0,0l0,0l0,0l0,0l0,0l0,0l0,0l0,0l0,0l0,0l0,0
					l0,0l0,0l0,0l0,0l0,0l0,0l0,0l0,0l0,0l0,0l0,0l0,0l0,0l0,0l0,0L15.4,121.6L15.4,121.6L15.4,121.6L15.4,121.6z M0.5,117.8
					l0.5-0.1l13.7,3.1l-0.4,1.6l-13.7-3.1C0.7,119.4,0.5,117.8,0.5,117.8z M1,117.8l-0.4,1.6l0,0l0,0l0,0l0,0l0,0l0,0l0,0l0,0l0,0
					l0,0l0,0l0,0l0,0l0,0l0,0l0,0l0,0l0,0l0,0l0,0l0,0l0,0l0,0l0,0l0,0l0,0l0,0l0,0l0,0l0,0l0,0l0,0l0,0l0,0l0,0l0,0l0,0l0,0l0,0
					l0,0l0,0l0,0l0,0l0,0l0,0l0,0l0,0l0,0l0,0l0,0l0,0l0,0l0,0l0,0l0,0l0,0l0,0l0,0l0,0l0,0l0,0L1,117.8L1,117.8L1,117.8L1,117.8z
					 M14.4,112.6l-0.5,0.8l-12.8,5.9l-0.7-1.5l12.8-5.9L14.4,112.6z M14,113.4l-0.7-1.5l0,0l0,0l0,0l0,0l0,0l0,0l0,0l0,0l0,0l0,0
					l0,0l0,0l0,0l0,0l0,0l0,0l0,0l0,0l0,0l0,0l0,0l0,0l0,0l0,0l0,0l0,0l0,0l0,0l0,0l0,0l0,0l0,0l0,0l0,0l0,0l0,0l0,0l0,0l0,0l0,0
					l0,0l0,0l0,0l0,0l0,0l0,0l0,0l0,0l0,0l0,0l0,0l0,0l0,0l0,0l0,0l0,0l0,0l0,0l0,0l0,0l0,0L14,113.4L14,113.4L14,113.4L14,113.4z
					 M12.9,98.1l0.2,0.5l1.3,14l-1.7,0.2l-1.3-14L12.9,98.1z M13.2,98.6l-1.7,0.2l0,0l0,0l0,0l0,0l0,0l0,0l0,0l0,0l0,0l0,0l0,0l0,0
					l0,0l0,0l0,0l0,0l0,0l0,0l0,0l0,0l0,0l0,0l0,0l0,0l0,0l0,0l0,0l0,0l0,0l0,0l0,0l0,0l0,0l0,0l0,0l0,0l0,0l0,0l0,0l0,0l0,0l0,0
					l0,0l0,0l0,0l0,0l0,0l0,0l0,0l0,0l0,0l0,0l0,0l0,0l0,0l0,0l0,0l0,0l0,0l0,0l0,0L13.2,98.6L13.2,98.6L13.2,98.6L13.2,98.6z
					 M22.2,109.8l-1-0.2l-9.6-10.3l1.2-1.1l9.6,10.3L22.2,109.8z M21.3,109.6l1.2-1.1l0,0l0,0l0,0l0,0l0,0l0,0l0,0l0,0l0,0l0,0l0,0
					l0,0l0,0l0,0l0,0l0,0l0,0l0,0l0,0l0,0l0,0l0,0l0,0l0,0l0,0l0,0l0,0l0,0l0,0l0,0l0,0l0,0l0,0l0,0l0,0l0,0l0,0l0,0l0,0l0,0l0,0
					l0,0l0,0l0,0l0,0l0,0l0,0l0,0l0,0l0,0l0,0l0,0l0,0l0,0l0,0l0,0l0,0l0,0l0,0l0,0L21.3,109.6L21.3,109.6L21.3,109.6
					C21.3,109.6,21.3,109.6,21.3,109.6z M35.5,103.9l-0.4,0.4l-12.9,5.5l-0.7-1.6l12.9-5.5L35.5,103.9z M35.1,104.2l-0.7-1.6l0,0
					l0,0l0,0l0,0l0,0l0,0l0,0l0,0l0,0l0,0l0,0l0,0l0,0l0,0l0,0l0,0l0,0l0,0l0,0l0,0l0,0l0,0l0,0l0,0l0,0l0,0l0,0l0,0l0,0l0,0l0,0
					l0,0l0,0l0,0l0,0l0,0l0,0l0,0l0,0l0,0l0,0l0,0l0,0l0,0l0,0l0,0l0,0l0,0l0,0l0,0l0,0l0,0l0,0l0,0l0,0l0,0l0,0l0,0l0,0l0,0l0,0
					L35.1,104.2L35.1,104.2L35.1,104.2L35.1,104.2z M27.3,116.3l-0.1-1l6.9-12.3l1.5,0.8l-6.9,12.3L27.3,116.3L27.3,116.3z
					 M27.2,115.3l1.5,0.8l0,0l0,0l0,0l0,0l0,0l0,0l0,0l0,0l0,0l0,0l0,0l0,0l0,0l0,0l0,0l0,0l0,0l0,0l0,0l0,0l0,0l0,0l0,0l0,0l0,0
					l0,0l0,0l0,0l0,0l0,0l0,0l0,0l0,0l0,0l0,0l0,0l0,0l0,0l0,0l0,0l0,0l0,0l0,0l0,0l0,0l0,0l0,0l0,0l0,0l0,0l0,0l0,0l0,0l0,0l0,0
					l0,0l0,0l0,0l0,0l0,0l0,0L27.2,115.3L27.2,115.3L27.2,115.3L27.2,115.3z M37,127.1l-0.5-0.3l-9.3-10.6l1.3-1.1l9.3,10.6
					L37,127.1L37,127.1z M36.5,126.9l1.3-1.1l0,0l0,0l0,0l0,0l0,0l0,0l0,0l0,0l0,0l0,0l0,0l0,0l0,0l0,0l0,0l0,0l0,0l0,0l0,0l0,0l0,0
					l0,0l0,0l0,0l0,0l0,0l0,0l0,0l0,0l0,0l0,0l0,0l0,0l0,0l0,0l0,0l0,0l0,0l0,0l0,0l0,0l0,0l0,0l0,0l0,0l0,0l0,0l0,0l0,0l0,0l0,0
					l0,0l0,0l0,0l0,0l0,0l0,0l0,0l0,0l0,0L36.5,126.9L36.5,126.9L36.5,126.9L36.5,126.9L36.5,126.9z"/>
			</g>
			<g>
				<path class="st1" d="M140.3,185.7c24.7-42.8-4.2-75-20.9-84.6c-16.6-9.6-36.1-10.3-36.1-10.3c10.1,3.6,65.8,31.9,36.3,83
					c-29.2,50.6-81.9,17-90,10.1c0,0,10.4,16.5,27,26.1C73.3,219.5,116.4,227.2,140.3,185.7L140.3,185.7z"/>
				<path id="_x31__15_" class="st2" d="M119.1,101.8l0.8-1.5l0,0l1.6,1l1.7,1.1l1.7,1.2l1.8,1.4l1.8,1.5l1.8,1.6l1.8,1.7l1.8,1.9
					l1.8,2l1.7,2.1l1.7,2.2l1.6,2.3l1.5,2.4l1.5,2.5l1.4,2.6l1.2,2.7l1.1,2.8l1,2.9l0.8,3l0.7,3.1l0.5,3.2l0.3,3.3l0.1,3.4l-0.1,3.5
					l-0.3,3.5l-0.5,3.6l-0.8,3.7l-1,3.8l-1.3,3.8l-1.6,3.9l-1.9,4l-2.2,4l-1.5-0.8l2.1-3.9l1.8-3.9l1.6-3.8l1.3-3.7l1-3.7l0.8-3.6
					l0.5-3.5l0.3-3.4l0.1-3.4l-0.1-3.3l-0.3-3.2l-0.5-3.1l-0.7-3l-0.8-2.9l-1-2.8l-1.1-2.7l-1.2-2.7l-1.3-2.6l-1.4-2.5l-1.5-2.4
					l-1.6-2.2l-1.6-2.1l-1.7-2l-1.7-1.9l-1.7-1.8l-1.7-1.7l-1.8-1.6l-1.7-1.5l-1.7-1.3l-1.7-1.2l-1.6-1.1L119.1,101.8L119.1,101.8
					L119.1,101.8z M83.6,90l-0.6,1.6l0.3-1.6l0.1,0L83.6,90l0.3,0l0.4,0l0.5,0l0.6,0l0.7,0.1l0.7,0.1l0.8,0.1l0.9,0.1l1,0.1l1.1,0.1
					l1.1,0.2l1.2,0.2l1.2,0.2l1.3,0.2l1.3,0.3l1.4,0.3l1.4,0.3l1.5,0.4l1.5,0.4l1.5,0.4l1.5,0.5l1.6,0.5l1.6,0.6l1.6,0.6l1.6,0.6
					l1.6,0.7l1.6,0.7l1.6,0.8l1.6,0.8l1.6,0.9l-0.8,1.5l-1.5-0.9l-1.6-0.8l-1.6-0.8l-1.6-0.7l-1.6-0.7l-1.6-0.6l-1.6-0.6l-1.6-0.5
					l-1.5-0.5l-1.5-0.5l-1.5-0.4l-1.5-0.4l-1.4-0.4l-1.4-0.3l-1.4-0.3L95,93.1l-1.3-0.2l-1.2-0.2l-1.2-0.2l-1.1-0.2l-1-0.2l-1-0.1
					l-0.9-0.1l-0.8-0.1l-0.7-0.1l-0.6-0.1l-0.6,0l-0.5,0l-0.4,0l-0.3,0l-0.2,0l0,0L83.6,90L83.6,90z M83.1,91.5l-5.2-1.8l5.5,0.2
					C83.4,89.9,83.1,91.5,83.1,91.5z M120.4,174.2l-1.5-0.8l0,0l2.5-4.7l2-4.5l1.6-4.4l1.1-4.3l0.7-4.1l0.4-4l0-3.8l-0.3-3.7
					l-0.6-3.6l-0.9-3.4l-1.1-3.3l-1.4-3.2l-1.6-3l-1.8-2.9l-1.9-2.8l-2.1-2.6l-2.2-2.5l-2.3-2.4l-2.3-2.2l-2.4-2.1l-2.4-2l-2.4-1.8
					l-2.4-1.7L97,98.8l-2.3-1.4l-2.2-1.3l-2-1.1l-1.9-1l-1.7-0.8l-1.5-0.7l-1.3-0.5l-1-0.4l0.6-1.6l1.1,0.4l1.3,0.6l1.6,0.7l1.8,0.9
					l1.9,1l2.1,1.1l2.2,1.3l2.3,1.4l2.4,1.6l2.4,1.7l2.5,1.9l2.5,2l2.4,2.1l2.4,2.3l2.3,2.4l2.2,2.6l2.1,2.7l2,2.9l1.8,3l1.6,3.1
					l1.4,3.3l1.2,3.4l0.9,3.6l0.6,3.7l0.3,3.9l0,4l-0.4,4.1l-0.8,4.3l-1.2,4.4l-1.6,4.5l-2.1,4.6L120.4,174.2L120.4,174.2
					L120.4,174.2z M30.3,183.4l-1.4,0.9l1.3-1.1l0.9,0.7l1.1,0.8l1.4,1l1.6,1.1l1.8,1.1l2,1.2l2.2,1.2l2.3,1.2l2.5,1.2l2.7,1.2
					l2.8,1.2l2.9,1.1l3,1l3.1,0.9l3.2,0.8l3.3,0.6l3.3,0.5l3.4,0.3l3.4,0.1l3.4-0.2l3.4-0.4l3.4-0.7l3.4-1l3.4-1.3l3.4-1.6l3.3-1.9
					l3.2-2.3l3.2-2.7l3.1-3.1l3-3.5l2.9-4l2.8-4.5l1.5,0.8l-2.8,4.5l-3,4.1l-3.1,3.6l-3.2,3.2l-3.3,2.8l-3.4,2.4l-3.4,2l-3.5,1.6
					l-3.5,1.3l-3.6,1l-3.6,0.7l-3.6,0.4L77,202l-3.5-0.1l-3.5-0.3l-3.4-0.5l-3.4-0.6l-3.3-0.8l-3.2-0.9l-3.1-1l-3-1.1l-2.8-1.2
					l-2.7-1.2l-2.6-1.3l-2.4-1.3l-2.2-1.2l-2-1.2l-1.8-1.2l-1.6-1.1l-1.4-1l-1.2-0.9l-0.9-0.7L30.3,183.4L30.3,183.4z M57.1,209.2
					l-0.8,1.5l0,0l-1.6-0.9l-1.5-1l-1.5-1l-1.4-1l-1.4-1.1l-1.4-1.1l-1.3-1.1l-1.3-1.1l-1.2-1.1l-1.2-1.1l-1.1-1.1l-1.1-1.1
					l-1.1-1.1l-1-1.1l-1-1l-0.9-1l-0.9-1l-0.8-1l-0.8-0.9l-0.7-0.9l-0.7-0.8l-0.6-0.8l-0.5-0.7l-0.5-0.7l-0.4-0.6l-0.4-0.5l-0.3-0.5
					l-0.3-0.4l-0.2-0.3l-0.2-0.2l-0.1-0.1l0-0.1l1.4-0.9l0,0l0.1,0.1l0.1,0.2l0.2,0.3l0.3,0.4l0.3,0.5l0.4,0.5l0.4,0.6l0.5,0.7
					l0.5,0.7l0.6,0.8l0.6,0.8l0.7,0.9l0.7,0.9l0.8,0.9l0.8,1l0.9,1l0.9,1l1,1l1,1.1l1.1,1.1l1.1,1.1l1.2,1.1l1.2,1.1l1.3,1.1
					l1.3,1.1l1.3,1l1.4,1l1.4,1l1.4,1l1.5,0.9L57.1,209.2L57.1,209.2L57.1,209.2z M139.6,185.3l1.5,0.8l0,0l-2.3,3.8l-2.4,3.5
					l-2.5,3.2l-2.6,3l-2.7,2.7l-2.8,2.5l-2.8,2.2l-2.9,2l-2.9,1.8l-3,1.6l-3,1.4l-3,1.2l-3,1l-3,0.8l-3,0.6l-3,0.5l-3,0.3l-3,0.2
					l-2.9,0l-2.9-0.1l-2.8-0.2l-2.8-0.3l-2.7-0.4l-2.6-0.5l-2.5-0.6l-2.4-0.7l-2.3-0.7l-2.2-0.8l-2.1-0.8l-2-0.9l-1.8-0.9l-1.7-0.9
					l0.8-1.5l1.6,0.9l1.7,0.9l1.9,0.8l2,0.8l2.1,0.8l2.3,0.7l2.4,0.6l2.5,0.6l2.5,0.5l2.6,0.4l2.7,0.3l2.8,0.2l2.8,0.1l2.9,0
					l2.9-0.2l2.9-0.3l2.9-0.5l3-0.6l3-0.8l3-1l2.9-1.1l2.9-1.3l2.9-1.5l2.9-1.7l2.8-1.9l2.8-2.2l2.7-2.4l2.6-2.6l2.6-2.9l2.5-3.2
					l2.4-3.4L139.6,185.3L139.6,185.3L139.6,185.3z"/>
			</g>
			<g>
				<polygon class="st3" points="350.7,130.6 349.3,143.5 268.6,184.1 266,179.5 263.3,174.9 338.8,125.4 				"/>
				<path id="_x31__16_" class="st2" d="M349.7,144.3l-1.2-0.8l1.5-12.9l1.7,0.2l-1.5,12.9L349.7,144.3L349.7,144.3z M350.1,143.6
					l-0.1,0.5l-0.4,0.2L350.1,143.6z M267.9,184.5l0.3-1.2l80.6-40.6l0.8,1.5L269,184.9L267.9,184.5z M269,184.9l-0.7,0.4l-0.4-0.7
					L269,184.9L269,184.9z M265.2,179.9l1.5-0.8l2.7,4.6l-1.5,0.8L265.2,179.9L265.2,179.9z M265.2,179.9L265.2,179.9L265.2,179.9
					L265.2,179.9z M262.8,174.2l1.2,0.3l2.7,4.6l-1.5,0.8l-2.7-4.6L262.8,174.2L262.8,174.2z M262.6,175.3l-0.4-0.7l0.7-0.4
					L262.6,175.3L262.6,175.3z M339.1,124.6l0.1,1.5l-75.5,49.5l-0.9-1.4l75.5-49.5L339.1,124.6z M338.3,124.6l0.4-0.2l0.4,0.2
					L338.3,124.6z M351.6,130.7l-1.2,0.7l-11.9-5.2l0.7-1.5l11.9,5.2L351.6,130.7z M351.1,129.8l0.6,0.2l-0.1,0.6L351.1,129.8z"/>
			</g>
			<g>
				<polygon class="st3" points="263.3,174.9 355.5,114.7 359.8,103.3 348.6,103 259.2,166.7 				"/>
				<path id="_x31__17_" class="st2" d="M356.3,115l-0.3,0.4l-92.2,60.2l-0.9-1.4L355,114L356.3,115L356.3,115z M356.3,115l-0.1,0.3
					l-0.2,0.2L356.3,115L356.3,115z M359.8,102.4l0.8,1.1l-4.3,11.4l-1.6-0.6L359,103L359.8,102.4L359.8,102.4z M359.8,102.4l1.2,0
					l-0.4,1.1L359.8,102.4z M348.1,102.4l0.5-0.2l11.3,0.2l0,1.7l-11.3-0.2L348.1,102.4z M348.1,102.4l0.2-0.2l0.3,0L348.1,102.4
					L348.1,102.4z M258.4,167.1l0.3-1.1l89.4-63.7l1,1.4l-89.4,63.7L258.4,167.1L258.4,167.1z M258.4,167.1l-0.3-0.6l0.6-0.4
					L258.4,167.1z M263.8,175.6l-1.2-0.3l-4.1-8.1l1.5-0.8l4.1,8.1L263.8,175.6L263.8,175.6z M263.8,175.6l-0.8,0.5l-0.4-0.8
					L263.8,175.6z"/>
			</g>
			<g>
				<polygon class="st3" points="263.4,163.8 258.4,156.7 309.3,117.6 319.1,117.1 315.3,126.7 				"/>
				<path id="_x31__18_" class="st2" d="M257.8,156l1.2,0.2l5,7l-1.4,1l-5-7L257.8,156z M257.7,157.2l-0.5-0.7l0.6-0.5L257.7,157.2
					L257.7,157.2z M309.2,116.7l0.6,1.5l-50.9,39.1l-1-1.3l50.9-39.1L309.2,116.7L309.2,116.7z M308.8,116.9l0.2-0.2l0.3,0
					L308.8,116.9L308.8,116.9z M319.9,117.4l-0.7,0.5l-9.8,0.5l-0.1-1.7l9.8-0.5L319.9,117.4z M319.1,116.2l1.3-0.1l-0.5,1.2
					L319.1,116.2z M315.8,127.4l-1.3-1l3.8-9.7l1.6,0.6l-3.8,9.7L315.8,127.4z M316.1,127l-0.1,0.2l-0.2,0.1L316.1,127L316.1,127z
					 M262.7,164.2l0.2-1.2l52-37l1,1.4l-52,37L262.7,164.2z M263.9,164.4l-0.7,0.5l-0.5-0.7L263.9,164.4z"/>
			</g>
			<g>
				<polygon class="st3" points="258.4,156.7 324.5,106 328.9,92.1 315.7,94.6 255.3,151.1 				"/>
				<path id="_x31__19_" class="st2" d="M325.3,106.3l-0.3,0.4l-66.1,50.7l-1-1.3l66.1-50.7L325.3,106.3z M325.3,106.3l-0.1,0.3
					l-0.2,0.2L325.3,106.3L325.3,106.3z M328.8,91.3l1,1.1l-4.5,13.9l-1.6-0.5l4.5-13.9L328.8,91.3z M328.8,91.3l1.4-0.3l-0.4,1.3
					L328.8,91.3z M315.1,94l0.4-0.2l13.3-2.5l0.3,1.7l-13.3,2.5L315.1,94L315.1,94z M315.1,94l0.2-0.2l0.2,0L315.1,94z M254.6,151.5
					l0.2-1L315.1,94l1.2,1.2l-60.4,56.5L254.6,151.5L254.6,151.5z M254.6,151.5l-0.3-0.6l0.5-0.4L254.6,151.5z M258.9,157.4
					l-1.3-0.3l-3-5.6l1.5-0.8l3,5.6L258.9,157.4z M258.9,157.4l-0.8,0.6l-0.5-0.9L258.9,157.4L258.9,157.4z"/>
			</g>
			<g>
				<polygon class="st3" points="268.6,184.2 366.9,134.4 378.9,136.4 373.5,146.2 273.6,191.8 				"/>
				<path id="_x31__20_" class="st2" d="M367,133.6l0.2,1.6L269,184.9l-0.8-1.5l98.2-49.8L367,133.6L367,133.6z M366.5,133.6
					l0.2-0.1l0.3,0L366.5,133.6L366.5,133.6z M379.7,136.8l-0.9,0.4l-12.1-2l0.3-1.7l12.1,2L379.7,136.8L379.7,136.8z M379,135.5
					l1.2,0.2l-0.6,1L379,135.5z M373.8,147l-1.1-1.2l5.4-9.9l1.5,0.8l-5.4,9.9L373.8,147z M374.2,146.6l-0.1,0.2l-0.3,0.1
					L374.2,146.6z M272.9,192.2l0.4-1.2l99.9-45.5l0.7,1.5L274,192.6L272.9,192.2L272.9,192.2z M274,192.6l-0.7,0.3l-0.4-0.6
					L274,192.6z M268.3,183.4l1.1,0.3l5,7.6l-1.4,0.9l-5-7.6L268.3,183.4z M267.9,184.6l-0.5-0.8l0.8-0.4L267.9,184.6L267.9,184.6z"
					/>
			</g>
			<g>
				<polygon class="st3" points="278.3,189.6 281.9,197.5 341.3,173 346.6,164.7 336.4,163.2 				"/>
				<path id="_x31__21_" class="st2" d="M282.2,198.3l-1.1-0.4l-3.6-7.9l1.5-0.7l3.6,7.9L282.2,198.3L282.2,198.3z M282.2,198.3
					l-0.8,0.3l-0.3-0.7L282.2,198.3L282.2,198.3z M342,173.4l-0.4,0.3l-59.3,24.5l-0.6-1.6l59.3-24.5L342,173.4L342,173.4z
					 M342,173.4l-0.1,0.2l-0.2,0.1L342,173.4z M346.7,163.9l0.6,1.3l-5.4,8.3l-1.4-0.9l5.4-8.3L346.7,163.9L346.7,163.9z
					 M346.7,163.9l1.3,0.2l-0.7,1.1L346.7,163.9z M336,162.4l0.5-0.1l10.2,1.6l-0.3,1.7l-10.2-1.6L336,162.4L336,162.4z M336,162.4
					l0.2-0.1l0.2,0L336,162.4L336,162.4z M277.6,190l0.4-1.1l58-26.5l0.7,1.5l-58,26.5L277.6,190z M277.6,190l-0.3-0.8l0.8-0.3
					L277.6,190z"/>
			</g>
			<g>
				<polygon class="st3" points="281.9,197.5 358.8,165.6 373.1,168.7 364.3,178.9 285.3,202.9 				"/>
				<path id="_x31__22_" class="st2" d="M359,164.8l0.1,1.6l-76.9,31.9l-0.6-1.6l76.9-31.9L359,164.8z M358.5,164.8l0.2-0.1l0.3,0.1
					L358.5,164.8z M373.8,169.2l-0.8,0.3l-14.3-3.1l0.4-1.6l14.3,3.1L373.8,169.2z M373.3,167.9l1.4,0.3l-0.9,1.1L373.3,167.9z
					 M364.6,179.7l-0.9-1.4l8.8-10.2l1.3,1.1l-8.8,10.2L364.6,179.7L364.6,179.7z M365,179.5l-0.2,0.2l-0.2,0.1L365,179.5L365,179.5
					z M284.5,203.4l0.5-1.2l79.1-24l0.5,1.6l-79.1,24L284.5,203.4L284.5,203.4z M285.5,203.8l-0.6,0.2l-0.3-0.6L285.5,203.8z
					 M281.6,196.7l1,0.3l3.3,5.4l-1.4,0.9l-3.3-5.4L281.6,196.7L281.6,196.7z M281.2,198l-0.5-0.8l0.9-0.4L281.2,198L281.2,198z"/>
			</g>
			<g>
				<polygon class="st1" points="358.4,126.3 372.2,123.6 379.4,135.6 381.1,121.7 394.8,118.6 382,112.7 383.3,98.7 373.7,109 
					360.8,103.5 367.7,115.8 				"/>
				<path id="_x31__23_" class="st2" d="M373,123.2l-0.6,1.3l-13.8,2.7l-0.3-1.7l13.8-2.7L373,123.2z M372.1,122.8L372.1,122.8
					L372.1,122.8l0.1,0l0,0l0,0l0,0l0,0l0,0l0,0l0,0l0,0l0,0l0,0l0,0l0,0l0,0l0,0l0,0l0,0l0,0l0,0l0,0l0,0l0,0l0,0l0,0l0,0l0,0l0,0
					l0,0l0,0l0,0l0,0l0,0l0,0l0,0l0,0l0,0l0,0l0,0l0,0l0,0l0,0l0,0l0,0l0,0l0,0l0,0l0,0l0,0l0,0l0,0l0,0l0,0l0,0l0,0l0,0l0,0l0,0
					l0,0l0,0l0,0l0,0l0,0L372.1,122.8L372.1,122.8z M380.2,135.7l-1.6,0.3l-7.2-12.1l1.4-0.9l7.2,12.1L380.2,135.7z M380.1,135.2
					L380.1,135.2L380.1,135.2l0.1,0.1l0,0l0,0l0,0l0,0l0,0l0,0l0,0l0,0l0,0l0,0l0,0l0,0l0,0l0,0l0,0l0,0l0,0l0,0l0,0l0,0l0,0l0,0
					l0,0l0,0l0,0l0,0l0,0l0,0l0,0l0,0l0,0l0,0l0,0l0,0l0,0l0,0l0,0l0,0l0,0l0,0l0,0l0,0l0,0l0,0l0,0l0,0l0,0l0,0l0,0l0,0l0,0l0,0
					l0,0l0,0l0,0l0,0l0,0l0,0l0,0l0,0l0,0L380.1,135.2L380.1,135.2z M380.9,120.9l1,0.9l-1.7,14l-1.7-0.2l1.7-14L380.9,120.9z
					 M380.3,121.6L380.3,121.6L380.3,121.6l0-0.1l0,0l0,0l0,0l0,0l0,0l0,0l0,0l0,0l0,0l0,0l0,0l0,0l0,0l0,0l0,0l0,0l0,0l0,0l0,0l0,0
					l0,0l0,0l0,0l0,0l0,0l0,0l0,0l0,0l0,0l0,0l0,0l0,0l0,0l0,0l0,0l0,0l0,0l0,0l0,0l0,0l0,0l0,0l0,0l0,0l0,0l0,0l0,0l0,0l0,0l0,0
					l0,0l0,0l0,0l0,0l0,0l0,0l0,0l0,0l0,0l0,0l0,0L380.3,121.6L380.3,121.6z M395.1,117.8l-0.2,1.6l-13.7,3.1l-0.4-1.6l13.7-3.1
					L395.1,117.8z M394.6,117.8L394.6,117.8L394.6,117.8l0.1,0l0,0l0,0l0,0l0,0l0,0l0,0l0,0l0,0l0,0l0,0l0,0l0,0l0,0l0,0l0,0l0,0
					l0,0l0,0l0,0l0,0l0,0l0,0l0,0l0,0l0,0l0,0l0,0l0,0l0,0l0,0l0,0l0,0l0,0l0,0l0,0l0,0l0,0l0,0l0,0l0,0l0,0l0,0l0,0l0,0l0,0l0,0
					l0,0l0,0l0,0l0,0l0,0l0,0l0,0l0,0l0,0l0,0l0,0l0,0l0,0l0,0l0,0L394.6,117.8L394.6,117.8z M381.2,112.6l1.2-0.7l12.8,5.9
					l-0.7,1.5l-12.8-5.9L381.2,112.6L381.2,112.6z M381.7,113.4L381.7,113.4L381.7,113.4l-0.1-0.1l0,0l0,0l0,0l0,0l0,0l0,0l0,0l0,0
					l0,0l0,0l0,0l0,0l0,0l0,0l0,0l0,0l0,0l0,0l0,0l0,0l0,0l0,0l0,0l0,0l0,0l0,0l0,0l0,0l0,0l0,0l0,0l0,0l0,0l0,0l0,0l0,0l0,0l0,0
					l0,0l0,0l0,0l0,0l0,0l0,0l0,0l0,0l0,0l0,0l0,0l0,0l0,0l0,0l0,0l0,0l0,0l0,0l0,0l0,0l0,0l0,0l0,0L381.7,113.4L381.7,113.4z
					 M382.7,98.1l1.5,0.6l-1.3,14l-1.7-0.2l1.3-14L382.7,98.1z M382.5,98.6L382.5,98.6L382.5,98.6l0-0.1l0,0l0,0l0,0l0,0l0,0l0,0
					l0,0l0,0l0,0l0,0l0,0l0,0l0,0l0,0l0,0l0,0l0,0l0,0l0,0l0,0l0,0l0,0l0,0l0,0l0,0l0,0l0,0l0,0l0,0l0,0l0,0l0,0l0,0l0,0l0,0l0,0
					l0,0l0,0l0,0l0,0l0,0l0,0l0,0l0,0l0,0l0,0l0,0l0,0l0,0l0,0l0,0l0,0l0,0l0,0l0,0l0,0l0,0l0,0l0,0l0,0l0,0L382.5,98.6L382.5,98.6z
					 M373.4,109.8l-0.3-1.3l9.6-10.3l1.2,1.1l-9.6,10.3L373.4,109.8L373.4,109.8z M374.4,109.6L374.4,109.6L374.4,109.6L374.4,109.6
					l-0.1,0.1l0,0l0,0l0,0l0,0l0,0l0,0l0,0l0,0l0,0l0,0l0,0l0,0l0,0l0,0l0,0l0,0l0,0l0,0l0,0l0,0l0,0l0,0l0,0l0,0l0,0l0,0l0,0l0,0
					l0,0l0,0l0,0l0,0l0,0l0,0l0,0l0,0l0,0l0,0l0,0l0,0l0,0l0,0l0,0l0,0l0,0l0,0l0,0l0,0l0,0l0,0l0,0l0,0l0,0l0,0l0,0l0,0l0,0l0,0
					l0,0l0,0L374.4,109.6L374.4,109.6z M360.1,103.9l1.1-1.2l12.9,5.5l-0.7,1.6l-12.9-5.5L360.1,103.9z M360.5,104.2L360.5,104.2
					L360.5,104.2l-0.1-0.1l0,0l0,0l0,0l0,0l0,0l0,0l0,0l0,0l0,0l0,0l0,0l0,0l0,0l0,0l0,0l0,0l0,0l0,0l0,0l0,0l0,0l0,0l0,0l0,0l0,0
					l0,0l0,0l0,0l0,0l0,0l0,0l0,0l0,0l0,0l0,0l0,0l0,0l0,0l0,0l0,0l0,0l0,0l0,0l0,0l0,0l0,0l0,0l0,0l0,0l0,0l0,0l0,0l0,0l0,0l0,0
					l0,0l0,0l0,0l0,0l0,0l0,0L360.5,104.2L360.5,104.2z M368.3,116.3l-1.4-0.1l-6.9-12.3l1.5-0.8l6.9,12.3L368.3,116.3L368.3,116.3z
					 M368.4,115.3L368.4,115.3L368.4,115.3l0.1,0.1l0,0l0,0l0,0l0,0l0,0l0,0l0,0l0,0l0,0l0,0l0,0l0,0l0,0l0,0l0,0l0,0l0,0l0,0l0,0
					l0,0l0,0l0,0l0,0l0,0l0,0l0,0l0,0l0,0l0,0l0,0l0,0l0,0l0,0l0,0l0,0l0,0l0,0l0,0l0,0l0,0l0,0l0,0l0,0l0,0l0,0l0,0l0,0l0,0l0,0
					l0,0l0,0l0,0l0,0l0,0l0,0l0,0l0,0l0,0l0,0l0,0l0,0L368.4,115.3L368.4,115.3z M358.6,127.1l-0.8-1.4l9.2-10.6l1.3,1.1l-9.3,10.6
					L358.6,127.1L358.6,127.1z M359.1,126.9L359.1,126.9L359.1,126.9L359.1,126.9l-0.1,0.1l0,0l0,0l0,0l0,0l0,0l0,0l0,0l0,0l0,0l0,0
					l0,0l0,0l0,0l0,0l0,0l0,0l0,0l0,0l0,0l0,0l0,0l0,0l0,0l0,0l0,0l0,0l0,0l0,0l0,0l0,0l0,0l0,0l0,0l0,0l0,0l0,0l0,0l0,0l0,0l0,0
					l0,0l0,0l0,0l0,0l0,0l0,0l0,0l0,0l0,0l0,0l0,0l0,0l0,0l0,0l0,0l0,0l0,0l0,0l0,0l0,0L359.1,126.9L359.1,126.9z"/>
			</g>
			<g>
				<path class="st1" d="M255.3,185.7c-24.7-42.8,4.2-75,20.9-84.6c16.6-9.6,36.1-10.3,36.1-10.3c-10.1,3.6-65.8,31.9-36.3,83
					c29.2,50.6,81.9,17,90,10.1c0,0-10.4,16.5-27,26.1C322.3,219.5,279.2,227.2,255.3,185.7z"/>
				<path id="_x31__24_" class="st2" d="M276.5,101.8L276.5,101.8l-1.6,0.9l-1.6,1.1l-1.7,1.2l-1.7,1.3l-1.7,1.5l-1.8,1.6l-1.7,1.7
					l-1.7,1.8l-1.7,1.9l-1.7,2L258,119l-1.6,2.2l-1.5,2.4l-1.4,2.5l-1.3,2.6l-1.2,2.7l-1.1,2.7l-1,2.8l-0.8,2.9l-0.7,3l-0.5,3.1
					l-0.3,3.2l-0.1,3.3l0.1,3.4l0.3,3.4l0.5,3.5l0.8,3.6l1,3.7l1.3,3.7l1.6,3.8l1.8,3.9l2.1,3.9l-1.5,0.8l-2.2-4l-1.9-4l-1.6-3.9
					l-1.3-3.8l-1-3.8l-0.8-3.7l-0.5-3.6l-0.3-3.5l-0.1-3.5l0.1-3.4l0.3-3.3l0.5-3.2l0.7-3.1l0.8-3l1-2.9l1.1-2.8l1.2-2.7l1.4-2.6
					l1.5-2.5l1.5-2.4l1.6-2.3l1.7-2.2l1.7-2.1l1.8-2l1.8-1.9l1.8-1.7l1.8-1.6l1.8-1.5l1.8-1.4l1.7-1.2l1.7-1.1l1.6-1l0,0
					L276.5,101.8L276.5,101.8z M312,90l0.3,1.6l0,0l-0.2,0l-0.3,0l-0.4,0l-0.5,0l-0.6,0l-0.6,0.1l-0.7,0.1l-0.8,0.1l-0.9,0.1l-1,0.1
					l-1,0.2l-1.1,0.2l-1.2,0.2l-1.2,0.2l-1.3,0.2l-1.3,0.3l-1.4,0.3l-1.4,0.3l-1.4,0.4l-1.5,0.4l-1.5,0.4l-1.5,0.5l-1.5,0.5
					l-1.6,0.5l-1.6,0.6l-1.6,0.6l-1.6,0.7l-1.6,0.7l-1.6,0.8l-1.6,0.8l-1.5,0.9l-0.8-1.5l1.6-0.9l1.6-0.8l1.6-0.8l1.6-0.7l1.6-0.7
					l1.6-0.6l1.6-0.6l1.6-0.6l1.6-0.5l1.5-0.5l1.5-0.4l1.5-0.4l1.5-0.4l1.4-0.3l1.4-0.3l1.3-0.3l1.3-0.2l1.2-0.2l1.2-0.2l1.1-0.2
					l1.1-0.1l1-0.1l0.9-0.1l0.8-0.1l0.7-0.1l0.7-0.1l0.6,0l0.5,0l0.4,0L312,90l0.2,0l0.1,0l0.3,1.6C312.5,91.5,312,90,312,90z
					 M312.2,89.9l5.5-0.2l-5.2,1.8C312.5,91.5,312.2,89.9,312.2,89.9z M275.2,174.2L275.2,174.2l-2.5-4.8l-2.1-4.6l-1.6-4.5
					l-1.2-4.4l-0.8-4.3l-0.4-4.1l0-4l0.3-3.9l0.6-3.7l0.9-3.6l1.2-3.4l1.4-3.3l1.6-3.1l1.8-3l2-2.9l2.1-2.7l2.2-2.6l2.3-2.4l2.4-2.3
					l2.4-2.1l2.5-2l2.5-1.9l2.4-1.7l2.4-1.6l2.3-1.4l2.2-1.3l2.1-1.1l1.9-1l1.8-0.9l1.6-0.7l1.3-0.6L312,90l0.6,1.6l-1,0.4l-1.3,0.5
					l-1.5,0.7L307,94l-1.9,1l-2,1.1l-2.2,1.3l-2.3,1.4l-2.3,1.5l-2.4,1.7l-2.4,1.8l-2.4,2l-2.4,2.1l-2.3,2.2l-2.3,2.4l-2.2,2.5
					l-2.1,2.6l-1.9,2.8l-1.8,2.9l-1.6,3l-1.4,3.2l-1.1,3.3l-0.9,3.4l-0.6,3.6l-0.3,3.7l0,3.8l0.4,4l0.7,4.1l1.1,4.3l1.6,4.4l2,4.5
					l2.5,4.7l0,0L275.2,174.2L275.2,174.2z M365.3,183.4l1.3,1.1l-0.9,0.7l-1.2,0.9l-1.4,1l-1.6,1.1l-1.8,1.2l-2,1.2l-2.2,1.2
					L353,193l-2.6,1.3l-2.7,1.2l-2.8,1.2l-3,1.1l-3.1,1l-3.2,0.9l-3.3,0.8l-3.4,0.6l-3.4,0.5l-3.5,0.3l-3.5,0.1l-3.5-0.2l-3.6-0.4
					l-3.6-0.7l-3.6-1l-3.5-1.3l-3.5-1.6l-3.4-2l-3.4-2.4l-3.3-2.8l-3.2-3.2l-3.1-3.6l-3-4.1l-2.8-4.5l1.5-0.8l2.8,4.5l2.9,4l3,3.5
					l3.1,3.1l3.2,2.7l3.2,2.3l3.3,1.9l3.4,1.6l3.4,1.3l3.4,1l3.4,0.7l3.4,0.4l3.4,0.2l3.4-0.1l3.4-0.3l3.3-0.5l3.3-0.6l3.2-0.8
					l3.1-0.9l3-1l2.9-1.1l2.8-1.2l2.7-1.2l2.5-1.2l2.3-1.2l2.2-1.2l2-1.2l1.8-1.1l1.6-1.1l1.4-1l1.1-0.8l0.9-0.7l1.3,1.1
					L365.3,183.4L365.3,183.4z M338.6,209.2L338.6,209.2l1.5-0.9l1.5-0.9l1.4-1l1.4-1l1.4-1l1.3-1l1.3-1.1l1.3-1.1l1.2-1.1l1.2-1.1
					l1.1-1.1l1.1-1.1l1-1.1l1-1l0.9-1l0.9-1l0.8-1l0.8-0.9l0.7-0.9l0.7-0.9l0.6-0.8l0.6-0.8l0.5-0.7l0.5-0.7l0.4-0.6l0.4-0.5
					l0.3-0.5l0.3-0.4l0.2-0.3l0.1-0.2l0.1-0.1l0,0l1.4,0.9l0,0.1l-0.1,0.1l-0.2,0.2l-0.2,0.3l-0.3,0.4l-0.3,0.5l-0.4,0.5l-0.4,0.6
					l-0.5,0.7l-0.5,0.7l-0.6,0.8l-0.7,0.8l-0.7,0.9l-0.8,0.9l-0.8,1l-0.9,1l-0.9,1l-1,1l-1,1.1l-1.1,1.1l-1.1,1.1l-1.1,1.1l-1.2,1.1
					l-1.2,1.1l-1.3,1.1l-1.3,1.1l-1.4,1.1l-1.4,1.1l-1.4,1l-1.5,1l-1.5,1l-1.6,0.9l0,0L338.6,209.2L338.6,209.2z M256,185.3
					L256,185.3l2.3,3.7l2.4,3.4l2.5,3.2l2.6,2.9l2.6,2.6l2.7,2.4l2.8,2.2l2.8,1.9l2.9,1.7l2.9,1.5l2.9,1.3l2.9,1.1l3,1l3,0.8l3,0.6
					l2.9,0.5l2.9,0.3l2.9,0.2l2.9,0l2.8-0.1l2.8-0.2l2.7-0.3l2.6-0.4l2.5-0.5l2.5-0.6l2.4-0.6l2.3-0.7l2.1-0.8l2-0.8l1.9-0.8
					l1.7-0.9l1.6-0.9l0.8,1.5l-1.7,0.9l-1.8,0.9l-2,0.9l-2.1,0.8l-2.2,0.8l-2.3,0.7l-2.4,0.7l-2.5,0.6l-2.6,0.5l-2.7,0.4l-2.8,0.3
					l-2.8,0.2l-2.9,0.1l-2.9,0l-3-0.2l-3-0.3l-3-0.5l-3-0.6l-3-0.8l-3-1l-3-1.2l-3-1.4l-3-1.6l-2.9-1.8l-2.9-2l-2.8-2.2l-2.8-2.5
					l-2.7-2.7l-2.6-3l-2.5-3.2l-2.4-3.5l-2.3-3.8l0,0L256,185.3L256,185.3z"/>
			</g>
			<g>
				<polygon class="st3" points="197,390.1 186.5,382.3 191.6,292.2 197,292.2 202.3,292.2 207.4,382.3 				"/>
				<path id="_x31__25_" class="st2" d="M185.6,382.3l1.3-0.6l10.5,7.7l-1,1.4L186,383L185.6,382.3z M186,383l-0.4-0.3l0-0.5
					L186,383L186,383z M191.6,291.3l0.8,0.9l-5.2,90.1l-1.7-0.1l5.2-90.1L191.6,291.3L191.6,291.3z M190.8,292.1l0-0.8l0.8,0
					L190.8,292.1z M197,291.3v1.7l-5.3,0v-1.7L197,291.3L197,291.3z M197,291.3L197,291.3L197,291.3L197,291.3z M203.1,292.1
					l-0.8,0.9l-5.3,0v-1.7l5.3,0L203.1,292.1z M202.3,291.3h0.8l0,0.8L202.3,291.3z M207.9,383l-1.3-0.6l-5.2-90.1l1.7-0.1l5.2,90.1
					L207.9,383L207.9,383z M208.3,382.3l0,0.5l-0.4,0.3L208.3,382.3L208.3,382.3z M196.5,390.7v-1.4l10.5-7.7l1,1.4l-10.5,7.7H196.5
					z M197.5,390.7l-0.5,0.4l-0.5-0.4H197.5L197.5,390.7z"/>
			</g>
			<g>
				<polygon class="st3" points="202.3,292.2 208.3,402.1 216,411.6 221.9,401.9 211.4,292.7 				"/>
				<path id="_x31__26_" class="st2" d="M207.6,402.6l-0.2-0.5l-6-109.9l1.7-0.1l6,109.9L207.6,402.6L207.6,402.6z M207.6,402.6
					l-0.2-0.2l0-0.3L207.6,402.6z M216.8,412l-1.4,0.1l-7.7-9.5l1.3-1.1l7.7,9.5L216.8,412z M216.8,412l-0.6,1l-0.8-0.9L216.8,412
					L216.8,412z M222.7,401.9l-0.1,0.5l-5.8,9.6l-1.4-0.9l5.8-9.6L222.7,401.9L222.7,401.9z M222.7,401.9l0,0.3l-0.1,0.2
					L222.7,401.9L222.7,401.9z M211.4,291.8l0.8,0.8l10.5,109.2L221,402l-10.5-109.2L211.4,291.8z M211.4,291.8l0.7,0l0.1,0.7
					L211.4,291.8L211.4,291.8z M201.4,292.2l0.9-0.9l9.1,0.5l-0.1,1.7l-9.1-0.5L201.4,292.2L201.4,292.2z M201.4,292.2l-0.1-0.9
					l0.9,0.1L201.4,292.2L201.4,292.2z"/>
			</g>
			<g>
				<polygon class="st3" points="211.9,297.8 220.5,297 228.9,360.6 224.5,369.4 218,361.3 				"/>
				<path id="_x31__27_" class="st2" d="M221.3,296.9l-0.8,0.9l-8.6,0.8l-0.2-1.7l8.6-0.8L221.3,296.9z M220.4,296.2l0.8-0.1
					l0.1,0.8L220.4,296.2L220.4,296.2z M229.7,361l-1.6-0.3l-8.4-63.7l1.7-0.2l8.4,63.7L229.7,361z M229.8,360.5l0,0.3l-0.1,0.2
					L229.8,360.5z M223.8,369.9l-0.1-0.9l4.5-8.8l1.5,0.8l-4.5,8.8L223.8,369.9z M225.2,369.8l-0.6,1.2l-0.8-1L225.2,369.8z
					 M217.1,361.4l1.5-0.6l6.5,8.1l-1.3,1l-6.5-8.1L217.1,361.4L217.1,361.4z M217.3,361.9l-0.2-0.2l0-0.2L217.3,361.9L217.3,361.9z
					 M211.8,297l0.9,0.8l6.1,63.5l-1.7,0.2l-6.1-63.5L211.8,297L211.8,297z M211,297.9l-0.1-0.8l0.8-0.1L211,297.9z"/>
			</g>
			<g>
				<polygon class="st3" points="220.5,297 231.3,379.6 241.1,390.4 245.6,377.7 226.9,297.2 				"/>
				<path id="_x31__28_" class="st2" d="M230.7,380.1l-0.2-0.5l-10.8-82.6l1.7-0.2l10.8,82.6L230.7,380.1L230.7,380.1z M230.7,380.1
					l-0.2-0.2l0-0.3L230.7,380.1z M241.9,390.7l-1.4,0.3l-9.8-10.8l1.2-1.1l9.8,10.8L241.9,390.7L241.9,390.7z M241.9,390.7
					l-0.5,1.3l-0.9-1.1L241.9,390.7L241.9,390.7z M246.4,377.5l0,0.5l-4.5,12.7l-1.6-0.6l4.5-12.7L246.4,377.5z M246.4,377.5
					l0.1,0.2l-0.1,0.2L246.4,377.5z M226.9,296.3l0.8,0.7l18.7,80.5l-1.6,0.4L226,297.4L226.9,296.3L226.9,296.3z M226.9,296.3
					l0.7,0l0.1,0.6L226.9,296.3L226.9,296.3z M219.7,297.1l0.9-1l6.4,0.2l0,1.7l-6.4-0.2L219.7,297.1L219.7,297.1z M219.7,297.1
					l-0.1-1l1,0L219.7,297.1L219.7,297.1z"/>
			</g>
			<g>
				<polygon class="st3" points="191.6,292.2 185.6,402.1 177.8,411.6 172,401.9 182.5,292.7 				"/>
				<path id="_x31__29_" class="st2" d="M186.2,402.6l-1.5-0.6l6-109.9l1.7,0.1l-6,109.9L186.2,402.6L186.2,402.6z M186.4,402.1
					l0,0.3l-0.2,0.2L186.4,402.1z M177.1,412l0.1-1l7.7-9.5l1.3,1.1l-7.7,9.5L177.1,412L177.1,412z M178.5,412.1l-0.8,0.9l-0.6-1
					L178.5,412.1L178.5,412.1z M171.2,401.9l1.6-0.4l5.8,9.6l-1.4,0.9l-5.8-9.6L171.2,401.9L171.2,401.9z M171.3,402.4l-0.1-0.2
					l0-0.3L171.3,402.4z M182.4,291.8l0.9,0.9L172.8,402l-1.7-0.2l10.5-109.2L182.4,291.8z M181.6,292.6l0.1-0.7l0.7,0L181.6,292.6
					L181.6,292.6z M192.4,292.2l-0.8,0.8l-9.1,0.5l-0.1-1.7l9.1-0.5L192.4,292.2L192.4,292.2z M191.5,291.3l0.9-0.1l-0.1,0.9
					L191.5,291.3L191.5,291.3z"/>
			</g>
			<g>
				<polygon class="st3" points="182,297.8 173.4,297 165,360.6 169.4,369.4 175.9,361.3 				"/>
				<path id="_x31__30_" class="st2" d="M172.5,296.9l0.9-0.7l8.6,0.8l-0.2,1.7l-8.6-0.8L172.5,296.9L172.5,296.9z M172.5,296.9
					l0.1-0.8l0.8,0.1L172.5,296.9L172.5,296.9z M164.2,361l-0.1-0.5l8.4-63.7l1.7,0.2l-8.4,63.7L164.2,361L164.2,361z M164.2,361
					l-0.1-0.2l0-0.3L164.2,361L164.2,361z M170.1,369.9l-1.4-0.1l-4.5-8.8l1.5-0.8l4.5,8.8L170.1,369.9L170.1,369.9z M170.1,369.9
					l-0.8,1l-0.6-1.2L170.1,369.9z M176.7,361.4l-0.2,0.4l-6.5,8.1l-1.3-1l6.5-8.1L176.7,361.4z M176.7,361.4l0,0.2l-0.2,0.2
					L176.7,361.4z M182.1,297l0.8,0.9l-6.1,63.5l-1.7-0.2l6.1-63.5L182.1,297L182.1,297z M182.1,297l0.8,0.1l-0.1,0.8L182.1,297
					L182.1,297z"/>
			</g>
			<g>
				<polygon class="st3" points="173.4,297 162.5,379.6 152.8,390.4 148.3,377.7 167,297.2 				"/>
				<path id="_x31__31_" class="st2" d="M163.2,380.1l-1.5-0.7l10.8-82.6l1.7,0.2l-10.8,82.6L163.2,380.1z M163.4,379.7l0,0.3
					l-0.2,0.2L163.4,379.7z M152,390.7l0.2-0.8l9.8-10.8l1.2,1.1l-9.8,10.8L152,390.7L152,390.7z M153.4,391l-0.9,1.1l-0.5-1.3
					L153.4,391L153.4,391z M147.5,377.5l1.6-0.1l4.5,12.7l-1.6,0.6l-4.5-12.7L147.5,377.5z M147.5,378l-0.1-0.2l0.1-0.2L147.5,378z
					 M167,296.3l0.8,1l-18.7,80.5l-1.6-0.4l18.7-80.5L167,296.3L167,296.3z M166.2,297l0.1-0.6l0.7,0L166.2,297L166.2,297z
					 M174.2,297.1l-0.8,0.7L167,298l0-1.7l6.4-0.2L174.2,297.1L174.2,297.1z M173.4,296.1l1,0l-0.1,1L173.4,296.1L173.4,296.1z"/>
			</g>
			<g>
				<polygon class="st1" points="196.8,398.9 192.2,412.2 178.2,412.4 189.5,420.8 185.3,434.2 196.8,426.1 208.3,434.2 
					204.1,420.8 215.4,412.4 201.3,412.2 				"/>
				<path id="_x31__32_" class="st2" d="M192.3,413l-0.8-1.1l4.5-13.3l1.6,0.5l-4.5,13.3L192.3,413z M193,412.4L193,412.4L193,412.4
					l-0.1,0.1l0,0l0,0l0,0l0,0l0,0l0,0l0,0l0,0l0,0l0,0l0,0l0,0l0,0l0,0l0,0l0,0l0,0l0,0l0,0l0,0l0,0l0,0h0l0,0l0,0l0,0l0,0l0,0l0,0
					l0,0l0,0l0,0l0,0l0,0l0,0l0,0l0,0l0,0l0,0l0,0l0,0l0,0l0,0l0,0l0,0l0,0l0,0l0,0l0,0l0,0l0,0l0,0l0,0l0,0v0l0,0l0,0l0,0l0,0l0,0
					l0,0L193,412.4L193,412.4z M177.7,413l0.5-1.5l14-0.2l0,1.7l-14,0.2L177.7,413z M178.2,413.2L178.2,413.2L178.2,413.2l-0.1,0
					l0,0l0,0l0,0l0,0l0,0l0,0l0,0l0,0l0,0l0,0l0,0l0,0l0,0l0,0l0,0l0,0l0,0l0,0l0,0l0,0l0,0l0,0l0,0l0,0l0,0l0,0l0,0l0,0l0,0l0,0
					l0,0l0,0l0,0l0,0l0,0l0,0l0,0l0,0l0,0l0,0l0,0l0,0l0,0l0,0l0,0l0,0l0,0l0,0l0,0l0,0l0,0l0,0l0,0l0,0l0,0l0,0l0,0l0,0l0,0l0,0
					l0,0L178.2,413.2L178.2,413.2z M190.3,421l-1.3,0.4l-11.3-8.4l1-1.3l11.3,8.4L190.3,421z M190,420.1L190,420.1L190,420.1
					L190,420.1l0.1,0.1l0,0l0,0l0,0l0,0l0,0l0,0l0,0l0,0l0,0l0,0l0,0l0,0l0,0l0,0l0,0l0,0l0,0l0,0l0,0l0,0l0,0l0,0l0,0l0,0l0,0l0,0
					l0,0l0,0l0,0l0,0l0,0l0,0l0,0l0,0l0,0l0,0l0,0l0,0l0,0l0,0l0,0l0,0l0,0l0,0l0,0l0,0l0,0l0,0l0,0l0,0l0,0l0,0l0,0l0,0l0,0l0,0
					l0,0l0,0l0,0l0,0L190,420.1L190,420.1z M185.8,434.9l-1.3-0.9l4.2-13.4l1.6,0.5l-4.2,13.4L185.8,434.9z M186.1,434.4
					L186.1,434.4L186.1,434.4l0,0.1l0,0l0,0l0,0l0,0l0,0l0,0l0,0l0,0l0,0l0,0l0,0l0,0l0,0l0,0l0,0l0,0l0,0l0,0l0,0l0,0l0,0l0,0l0,0
					l0,0l0,0l0,0l0,0l0,0l0,0l0,0l0,0l0,0l0,0l0,0l0,0l0,0l0,0l0,0l0,0l0,0l0,0l0,0l0,0l0,0l0,0l0,0l0,0l0,0l0,0l0,0l0,0l0,0l0,0
					l0,0l0,0l0,0l0,0l0,0l0,0l0,0l0,0L186.1,434.4L186.1,434.4z M197.3,425.4v1.4l-11.5,8.1l-1-1.4l11.5-8.1H197.3z M196.3,425.4
					L196.3,425.4L196.3,425.4l0.1-0.1l0,0l0,0l0,0l0,0l0,0l0,0l0,0l0,0l0,0l0,0l0,0l0,0l0,0l0,0l0,0l0,0l0,0l0,0l0,0l0,0l0,0l0,0
					l0,0l0,0l0,0l0,0l0,0l0,0l0,0l0,0l0,0l0,0l0,0l0,0l0,0l0,0l0,0l0,0l0,0l0,0l0,0l0,0l0,0l0,0l0,0l0,0l0,0l0,0l0,0l0,0l0,0l0,0
					l0,0l0,0l0,0l0,0l0,0l0,0l0,0l0,0l0,0L196.3,425.4L196.3,425.4z M209.1,433.9l-1.3,0.9l-11.5-8.1l1-1.4l11.5,8.1L209.1,433.9z
					 M208.8,433.5L208.8,433.5L208.8,433.5L208.8,433.5l0.1,0.1l0,0l0,0l0,0l0,0l0,0l0,0l0,0l0,0l0,0l0,0l0,0l0,0l0,0l0,0l0,0l0,0
					l0,0l0,0l0,0l0,0l0,0l0,0l0,0l0,0l0,0l0,0l0,0l0,0l0,0l0,0l0,0l0,0l0,0l0,0l0,0l0,0l0,0l0,0l0,0l0,0l0,0l0,0l0,0l0,0l0,0l0,0
					l0,0l0,0l0,0l0,0l0,0l0,0l0,0l0,0l0,0l0,0l0,0l0,0l0,0l0,0L208.8,433.5L208.8,433.5z M203.6,420.1l1.3,0.4l4.1,13.4l-1.6,0.5
					l-4.1-13.4L203.6,420.1L203.6,420.1z M203.3,421L203.3,421L203.3,421l0-0.1l0,0l0,0l0,0l0,0l0,0l0,0l0,0l0,0l0,0l0,0l0,0l0,0
					l0,0l0,0l0,0l0,0l0,0l0,0l0,0l0,0l0,0l0,0l0,0l0,0l0,0l0,0l0,0l0,0l0,0l0,0l0,0l0,0l0,0l0,0l0,0l0,0l0,0l0,0l0,0l0,0l0,0l0,0
					l0,0l0,0l0,0l0,0l0,0l0,0l0,0l0,0l0,0l0,0l0,0l0,0l0,0l0,0l0,0l0,0l0,0l0,0l0,0L203.3,421L203.3,421z M215.4,411.5l0.5,1.5
					l-11.2,8.4l-1-1.4l11.2-8.4L215.4,411.5z M214.9,411.7L214.9,411.7L214.9,411.7l0.1-0.1l0,0l0,0l0,0l0,0l0,0l0,0l0,0l0,0l0,0
					l0,0l0,0l0,0l0,0l0,0l0,0l0,0l0,0l0,0l0,0l0,0l0,0l0,0l0,0l0,0l0,0l0,0l0,0l0,0l0,0l0,0l0,0l0,0l0,0l0,0l0,0l0,0l0,0l0,0l0,0
					l0,0l0,0l0,0l0,0l0,0l0,0l0,0l0,0l0,0l0,0l0,0l0,0l0,0l0,0l0,0l0,0l0,0l0,0l0,0l0,0l0,0l0,0L214.9,411.7L214.9,411.7z
					 M200.5,412.4l0.8-1.1l14.1,0.2l0,1.7l-14.1-0.2L200.5,412.4z M201.3,413L201.3,413L201.3,413l-0.1,0l0,0l0,0l0,0l0,0l0,0l0,0
					l0,0l0,0l0,0l0,0l0,0l0,0l0,0l0,0l0,0l0,0l0,0l0,0l0,0l0,0l0,0l0,0l0,0l0,0l0,0l0,0l0,0l0,0l0,0l0,0l0,0l0,0l0,0l0,0l0,0l0,0
					l0,0l0,0l0,0l0,0l0,0l0,0l0,0l0,0l0,0l0,0l0,0l0,0l0,0l0,0l0,0l0,0l0,0l0,0l0,0l0,0l0,0l0,0l0,0l0,0l0,0L201.3,413L201.3,413z
					 M196,398.6h1.6l4.5,13.3l-1.6,0.5l-4.5-13.3V398.6z M196,399.1L196,399.1L196,399.1l0-0.1l0,0l0,0l0,0v0l0,0l0,0l0,0l0,0l0,0
					l0,0l0,0l0,0l0,0l0,0l0,0l0,0l0,0l0,0l0,0l0,0l0,0l0,0l0,0l0,0l0,0l0,0l0,0l0,0l0,0l0,0l0,0l0,0l0,0l0,0l0,0h0l0,0l0,0l0,0l0,0
					l0,0l0,0l0,0l0,0l0,0l0,0l0,0l0,0l0,0l0,0l0,0l0,0l0,0l0,0l0,0l0,0l0,0l0,0l0,0l0,0l0,0L196,399.1L196,399.1z"/>
			</g>
			<g>
				<path class="st1" d="M196.9,279.8c49.4,0,62.8,41.2,62.8,60.4c0,19.2-9.1,36.5-9.1,36.5c1.9-10.5,5.2-72.9-53.7-72.9
					c-58.4,0-55.7,62.4-53.7,72.9c0,0-9.1-17.3-9.1-36.5C134.1,321,149,279.8,196.9,279.8z"/>
				<path id="_x31__33_" class="st2" d="M258.9,340.2L258.9,340.2l0-1.8l-0.1-1.9l-0.2-2.1l-0.3-2.1l-0.4-2.2l-0.5-2.3l-0.6-2.4
					l-0.7-2.4l-0.8-2.4l-0.9-2.5l-1-2.5l-1.2-2.5l-1.3-2.5l-1.4-2.5l-1.6-2.4l-1.7-2.4l-1.8-2.3l-2-2.2l-2.1-2.2l-2.3-2.1l-2.4-2
					l-2.6-1.9l-2.8-1.7l-2.9-1.6l-3.1-1.5l-3.3-1.3l-3.5-1.1l-3.7-1l-3.9-0.8l-4.1-0.6l-4.3-0.3l-4.5-0.1V279l4.6,0.1l4.4,0.4
					l4.2,0.6l4,0.8l3.8,1l3.6,1.2l3.4,1.3l3.2,1.5l3,1.7l2.9,1.8l2.7,1.9l2.5,2l2.4,2.1l2.2,2.2l2,2.3l1.9,2.4l1.7,2.4l1.6,2.5
					l1.5,2.5l1.3,2.5l1.2,2.5l1.1,2.5l0.9,2.5l0.8,2.5l0.7,2.5l0.6,2.4l0.5,2.4l0.4,2.3l0.3,2.2l0.2,2.1l0.1,2l0,1.9l0,0
					L258.9,340.2L258.9,340.2z M251.5,376.8l-1.6-0.5l0,0l0.1-0.1l0.1-0.2l0.2-0.3l0.2-0.4l0.2-0.5l0.3-0.6l0.3-0.7l0.3-0.7l0.4-0.8
					l0.4-0.9l0.4-1l0.4-1l0.4-1.1l0.4-1.2l0.4-1.2l0.4-1.3l0.4-1.3l0.4-1.4l0.4-1.4l0.4-1.5l0.4-1.5l0.4-1.5l0.3-1.6l0.3-1.6
					l0.3-1.7l0.2-1.7l0.2-1.7l0.2-1.7l0.1-1.7l0.1-1.8l0-1.8h1.7l0,1.8l-0.1,1.8l-0.1,1.8l-0.2,1.8l-0.2,1.7l-0.2,1.7l-0.3,1.7
					l-0.3,1.7l-0.3,1.6l-0.4,1.6l-0.4,1.5l-0.4,1.5l-0.4,1.5l-0.4,1.4l-0.4,1.4l-0.4,1.3l-0.4,1.2l-0.4,1.2l-0.4,1.1l-0.4,1.1
					l-0.4,1l-0.4,0.9l-0.4,0.8l-0.3,0.8l-0.3,0.7l-0.3,0.6l-0.2,0.5l-0.2,0.4l-0.2,0.3L251.5,376.8l-0.1,0.2l0,0.1l-1.6-0.5
					L251.5,376.8L251.5,376.8z M251.4,377l-2.6,4.9l1-5.4L251.4,377L251.4,377z M196.9,302.9L196.9,302.9l5.4,0.2l5.1,0.5l4.7,0.9
					l4.4,1.2l4.1,1.5l3.8,1.7l3.5,2l3.2,2.2l2.9,2.4l2.6,2.6l2.4,2.7l2.1,2.9l1.9,3l1.7,3.1l1.5,3.1l1.3,3.2l1.1,3.2l0.9,3.2
					l0.8,3.2l0.6,3.2l0.5,3.1l0.4,3.1l0.3,3l0.2,2.8l0.1,2.7l0,2.5l0,2.4l-0.1,2.2l-0.1,1.9l-0.2,1.7l-0.2,1.4l-0.2,1.2l-1.7-0.3
					l0.2-1.1l0.2-1.4l0.2-1.7l0.1-1.9l0.1-2.1l0-2.3l0-2.5l-0.1-2.7l-0.2-2.8l-0.3-2.9l-0.4-3l-0.5-3.1l-0.6-3.1l-0.8-3.1l-0.9-3.2
					l-1.1-3.1l-1.3-3.1l-1.4-3.1l-1.6-3l-1.8-2.9l-2.1-2.8l-2.3-2.6l-2.5-2.5l-2.8-2.3l-3.1-2.1l-3.3-1.9l-3.6-1.7l-3.9-1.4
					l-4.3-1.1l-4.6-0.8l-4.9-0.5l-5.3-0.2l0,0L196.9,302.9L196.9,302.9z M144,376.3l-1.6,0.5l-0.2-1.2l-0.2-1.4l-0.2-1.7l-0.1-1.9
					l-0.1-2.2l0-2.4l0-2.5l0.1-2.7l0.2-2.8l0.3-3l0.4-3.1l0.5-3.1l0.7-3.2l0.8-3.2l1-3.2l1.1-3.2l1.3-3.2l1.5-3.1l1.7-3.1l1.9-3
					l2.1-2.9l2.4-2.7l2.6-2.6l2.9-2.4l3.2-2.2l3.5-2l3.7-1.7l4-1.5l4.4-1.2l4.7-0.9l5-0.5l5.4-0.2v1.7l-5.2,0.2l-4.9,0.5l-4.6,0.8
					l-4.2,1.1l-3.9,1.4l-3.6,1.7l-3.3,1.9l-3,2.1l-2.8,2.3l-2.5,2.5l-2.3,2.6l-2.1,2.8l-1.9,2.9l-1.6,3l-1.5,3.1l-1.3,3.1l-1.1,3.1
					l-0.9,3.2l-0.8,3.1l-0.6,3.1l-0.5,3.1l-0.4,3l-0.3,2.9l-0.2,2.8l-0.1,2.7l0,2.5l0,2.3l0.1,2.1l0.1,1.9l0.2,1.7l0.2,1.4l0.2,1.1
					l-1.6,0.5L144,376.3L144,376.3z M134.9,340.2L134.9,340.2l0,1.8l0.1,1.8l0.1,1.7l0.2,1.7l0.2,1.7l0.2,1.7l0.3,1.7l0.3,1.6
					l0.3,1.6l0.4,1.5l0.4,1.5l0.4,1.5l0.4,1.4l0.4,1.4l0.4,1.3l0.4,1.3l0.4,1.2l0.4,1.2l0.4,1.1l0.4,1l0.4,1l0.4,0.9l0.4,0.8
					l0.3,0.7l0.3,0.7l0.3,0.6l0.2,0.5l0.2,0.4l0.2,0.3l0.1,0.2l0.1,0.1l0,0l-1.5,0.8l0-0.1l-0.1-0.2l-0.1-0.2l-0.2-0.3l-0.2-0.4
					l-0.2-0.5l-0.3-0.6L141,374l-0.3-0.8l-0.4-0.8l-0.4-0.9l-0.4-1l-0.4-1.1l-0.4-1.1l-0.4-1.2l-0.4-1.2l-0.4-1.3l-0.4-1.4l-0.4-1.4
					l-0.4-1.5l-0.4-1.5l-0.4-1.5l-0.4-1.6l-0.3-1.6l-0.3-1.7l-0.3-1.7l-0.2-1.7l-0.2-1.7l-0.2-1.8l-0.1-1.8l-0.1-1.8l0-1.8l0,0
					L134.9,340.2L134.9,340.2z M196.9,280.7L196.9,280.7l-4.4,0.1l-4.2,0.3l-4,0.6l-3.8,0.8l-3.6,1l-3.4,1.1l-3.3,1.3l-3.1,1.5
					l-2.9,1.6l-2.8,1.7l-2.6,1.9l-2.4,2l-2.3,2.1l-2.2,2.2l-2,2.2l-1.9,2.3l-1.7,2.4l-1.6,2.4l-1.5,2.5l-1.3,2.5l-1.2,2.5l-1.1,2.5
					l-1,2.5l-0.9,2.4l-0.7,2.4l-0.6,2.4l-0.5,2.3l-0.4,2.2l-0.3,2.1l-0.2,2l-0.1,1.9l0,1.8h-1.7l0-1.9l0.1-2l0.2-2.1l0.3-2.2
					l0.4-2.3l0.5-2.4l0.6-2.4l0.8-2.5l0.9-2.5l1-2.5l1.1-2.5l1.2-2.5l1.4-2.5l1.5-2.5l1.6-2.5l1.8-2.4l1.9-2.4l2.1-2.3l2.2-2.2
					l2.4-2.1l2.5-2l2.7-1.9l2.8-1.8l3-1.7l3.2-1.5l3.4-1.3l3.5-1.2l3.7-1l3.9-0.8l4.1-0.6l4.3-0.4l4.4-0.1l0,0V280.7L196.9,280.7z"
					/>
			</g>
			<g>
				<polygon class="st1" points="44.9,304.5 46.3,291.5 127,250.9 129.7,255.5 132.3,260.1 56.8,309.7 				"/>
				<path id="_x31__34_" class="st2" d="M46,290.8l1.2,0.8l-1.5,12.9l-1.7-0.2l1.5-12.9L46,290.8z M45.5,291.4l0.1-0.5l0.4-0.2
					L45.5,291.4z M127.7,250.5l-0.3,1.2l-80.6,40.6l-0.8-1.5l80.6-40.6L127.7,250.5L127.7,250.5z M126.6,250.2l0.7-0.4l0.4,0.7
					L126.6,250.2L126.6,250.2z M130.4,255.1l-1.5,0.8l-2.7-4.6l1.5-0.8L130.4,255.1L130.4,255.1z M130.4,255.1L130.4,255.1
					L130.4,255.1L130.4,255.1z M132.8,260.9l-1.2-0.3l-2.7-4.6l1.5-0.8l2.7,4.6L132.8,260.9L132.8,260.9z M133.1,259.7l0.4,0.7
					l-0.7,0.4L133.1,259.7z M56.5,310.5l-0.1-1.5l75.5-49.5l0.9,1.4l-75.5,49.5C57.3,310.4,56.5,310.5,56.5,310.5z M57.3,310.4
					l-0.4,0.2l-0.4-0.2C56.5,310.5,57.3,310.4,57.3,310.4z M44,304.4l1.2-0.7l11.9,5.2l-0.7,1.5l-11.9-5.2L44,304.4L44,304.4z
					 M44.5,305.3L44,305l0.1-0.6L44.5,305.3L44.5,305.3z"/>
			</g>
			<g>
				<polygon class="st1" points="132.3,260.1 40.1,320.3 35.8,331.7 47.1,332 136.4,268.3 				"/>
				<path id="_x31__35_" class="st2" d="M39.3,320l0.3-0.4l92.2-60.2l0.9,1.4L40.6,321C40.6,321,39.3,320,39.3,320z M39.3,320
					l0.1-0.3l0.2-0.2L39.3,320L39.3,320z M35.8,332.6l-0.8-1.1l4.3-11.4l1.6,0.6l-4.3,11.4C36.6,332.1,35.8,332.6,35.8,332.6z
					 M35.8,332.6l-1.2,0l0.4-1.1L35.8,332.6L35.8,332.6z M47.5,332.7l-0.5,0.2l-11.3-0.2l0-1.7l11.3,0.2L47.5,332.7L47.5,332.7z
					 M47.5,332.7l-0.2,0.2l-0.3,0L47.5,332.7L47.5,332.7z M137.2,267.9l-0.3,1.1l-89.4,63.7l-1-1.4l89.4-63.7L137.2,267.9
					L137.2,267.9z M137.2,267.9l0.3,0.6l-0.6,0.4L137.2,267.9L137.2,267.9z M131.9,259.4l1.2,0.3l4.1,8.1l-1.5,0.8l-4.1-8.1
					L131.9,259.4z M131.9,259.4l0.8-0.5l0.4,0.8L131.9,259.4L131.9,259.4z"/>
			</g>
			<g>
				<polygon class="st1" points="132.2,271.3 137.3,278.3 86.3,317.4 76.5,318 80.3,308.3 				"/>
				<path id="_x31__36_" class="st2" d="M137.8,279l-1.2-0.2l-5-7l1.4-1l5,7L137.8,279L137.8,279z M137.9,277.8l0.5,0.7l-0.6,0.5
					L137.9,277.8L137.9,277.8z M86.4,318.3l-0.6-1.5l50.9-39.1l1,1.3l-50.9,39.1C86.9,318.1,86.4,318.3,86.4,318.3z M86.9,318.1
					l-0.2,0.2l-0.3,0L86.9,318.1z M75.7,317.7l0.7-0.5l9.8-0.5l0.1,1.7l-9.8,0.5C76.6,318.8,75.7,317.7,75.7,317.7z M76.6,318.8
					l-1.3,0.1l0.5-1.2C75.7,317.7,76.6,318.8,76.6,318.8z M79.8,307.6l1.3,1l-3.8,9.7l-1.6-0.6l3.8-9.7L79.8,307.6L79.8,307.6z
					 M79.5,308l0.1-0.2l0.2-0.1C79.8,307.6,79.5,308,79.5,308z M132.9,270.8l-0.2,1.2l-52,37l-1-1.4l52-37L132.9,270.8z
					 M131.7,270.6l0.7-0.5l0.5,0.7L131.7,270.6L131.7,270.6z"/>
			</g>
			<g>
				<polygon class="st1" points="137.3,278.3 71.2,329 66.7,342.9 79.9,340.4 140.3,283.9 				"/>
				<path id="_x31__37_" class="st2" d="M70.4,328.7l0.3-0.4l66.1-50.7l1,1.3l-66.1,50.7C71.7,329.7,70.4,328.7,70.4,328.7z
					 M70.4,328.7l0.1-0.3l0.2-0.2L70.4,328.7z M66.8,343.7l-1-1.1l4.5-13.9l1.6,0.5l-4.5,13.9L66.8,343.7z M66.8,343.7l-1.4,0.3
					l0.4-1.3L66.8,343.7L66.8,343.7z M80.5,341l-0.4,0.2l-13.3,2.5l-0.3-1.7l13.3-2.5C79.8,339.6,80.5,341,80.5,341z M80.5,341
					l-0.2,0.2l-0.2,0L80.5,341z M141,283.5l-0.2,1L80.5,341l-1.2-1.2l60.4-56.5L141,283.5L141,283.5z M141,283.5l0.3,0.6l-0.5,0.4
					L141,283.5L141,283.5z M136.7,277.7l1.3,0.3l3,5.6l-1.5,0.8l-3-5.6L136.7,277.7L136.7,277.7z M136.7,277.7l0.8-0.6l0.5,0.9
					L136.7,277.7z"/>
			</g>
			<g>
				<polygon class="st1" points="127,250.9 28.8,300.6 16.7,298.7 22.1,288.8 122,243.3 				"/>
				<path id="_x31__38_" class="st2" d="M28.6,301.5l-0.3-1.6l98.2-49.8l0.8,1.5l-98.2,49.8L28.6,301.5L28.6,301.5z M29.1,301.4
					l-0.2,0.1l-0.3,0L29.1,301.4L29.1,301.4z M16,298.3l0.9-0.4l12.1,2l-0.3,1.7l-12.1-2L16,298.3z M16.6,299.5l-1.2-0.2l0.6-1
					L16.6,299.5L16.6,299.5z M21.8,288l1.1,1.2l-5.4,9.9l-1.5-0.8l5.4-9.9C21.4,288.4,21.8,288,21.8,288z M21.4,288.4l0.1-0.2
					l0.3-0.1L21.4,288.4z M122.7,242.8l-0.4,1.2l-99.9,45.5l-0.7-1.5l99.9-45.5L122.7,242.8L122.7,242.8z M121.6,242.5l0.7-0.3
					l0.4,0.6L121.6,242.5L121.6,242.5z M127.4,251.6l-1.1-0.3l-5-7.6l1.4-0.9l5,7.6L127.4,251.6L127.4,251.6z M127.7,250.4l0.5,0.8
					l-0.8,0.4L127.7,250.4L127.7,250.4z"/>
			</g>
			<g>
				<polygon class="st1" points="117.3,245.4 113.7,237.5 54.4,262 49,270.3 59.2,271.9 				"/>
				<path id="_x31__39_" class="st2" d="M113.4,236.7l1.1,0.4l3.6,7.9l-1.5,0.7l-3.6-7.9L113.4,236.7L113.4,236.7z M113.4,236.7
					l0.8-0.3l0.3,0.7L113.4,236.7z M53.7,261.6l0.4-0.3l59.3-24.5l0.6,1.6l-59.3,24.5L53.7,261.6z M53.7,261.6l0.1-0.2l0.2-0.1
					L53.7,261.6z M48.9,271.1l-0.6-1.3l5.4-8.3l1.4,0.9l-5.4,8.3C49.7,270.8,48.9,271.1,48.9,271.1z M48.9,271.1l-1.3-0.2l0.7-1.1
					L48.9,271.1z M59.6,272.6l-0.5,0.1l-10.2-1.6l0.3-1.7l10.2,1.6C59.4,271,59.6,272.6,59.6,272.6z M59.6,272.6l-0.2,0.1l-0.3,0
					L59.6,272.6z M118.1,245l-0.4,1.1l-58,26.5l-0.7-1.5l58-26.5L118.1,245L118.1,245z M118.1,245l0.3,0.8l-0.8,0.3L118.1,245
					L118.1,245z"/>
			</g>
			<g>
				<polygon class="st1" points="113.7,237.5 36.8,269.4 22.5,266.4 31.3,256.1 110.4,232.1 				"/>
				<path id="_x31__40_" class="st2" d="M36.6,270.3l-0.1-1.6l76.9-31.9l0.6,1.6l-76.9,31.9C37.1,270.2,36.6,270.3,36.6,270.3z
					 M37.1,270.2l-0.2,0.1l-0.3-0.1L37.1,270.2z M21.8,265.8l0.8-0.3l14.3,3.1l-0.4,1.6l-14.3-3.1C22.3,267.2,21.8,265.8,21.8,265.8
					z M22.3,267.2l-1.4-0.3l0.9-1.1L22.3,267.2z M31,255.3l0.9,1.4l-8.8,10.2l-1.3-1.1l8.8-10.2L31,255.3z M30.6,255.6l0.2-0.2
					l0.2-0.1L30.6,255.6z M111.1,231.7l-0.5,1.2l-79.1,24l-0.5-1.6l79.1-24L111.1,231.7z M110.1,231.3l0.6-0.2l0.3,0.6L110.1,231.3z
					 M114,238.3l-1-0.3l-3.3-5.4l1.4-0.9l3.3,5.4L114,238.3L114,238.3z M114.4,237.1l0.5,0.8l-0.9,0.4L114.4,237.1z"/>
			</g>
			<g>
				<polygon class="st3" points="37.2,308.7 23.4,311.5 16.2,299.4 14.5,313.4 0.8,316.5 13.6,322.4 12.3,336.3 21.9,326 
					34.8,331.6 27.9,319.3 				"/>
				<path id="_x31__41_" class="st2" d="M22.7,311.9l0.6-1.3l13.8-2.7l0.3,1.7l-13.8,2.7L22.7,311.9L22.7,311.9z M23.5,312.3
					L23.5,312.3L23.5,312.3l-0.1,0l0,0l0,0l0,0l0,0l0,0l0,0l0,0l0,0l0,0l0,0l0,0l0,0l0,0l0,0l0,0l0,0l0,0l0,0l0,0l0,0l0,0l0,0l0,0
					l0,0l0,0l0,0l0,0l0,0l0,0l0,0l0,0l0,0l0,0l0,0l0,0l0,0l0,0l0,0l0,0l0,0l0,0l0,0l0,0l0,0l0,0l0,0l0,0l0,0l0,0l0,0l0,0l0,0l0,0
					l0,0l0,0l0,0l0,0l0,0l0,0l0,0l0,0L23.5,312.3L23.5,312.3z M15.4,299.3l1.6-0.3l7.2,12.1l-1.4,0.9l-7.2-12.1L15.4,299.3
					L15.4,299.3z M15.5,299.8L15.5,299.8L15.5,299.8l-0.1-0.1l0,0l0,0l0,0l0,0l0,0l0,0l0,0l0,0l0,0l0,0l0,0l0,0l0,0l0,0l0,0l0,0l0,0
					l0,0l0,0l0,0l0,0l0,0l0,0l0,0l0,0l0,0l0,0l0,0l0,0l0,0l0,0l0,0l0,0l0,0l0,0l0,0l0,0l0,0l0,0l0,0l0,0l0,0l0,0l0,0l0,0l0,0l0,0
					l0,0l0,0l0,0l0,0l0,0l0,0l0,0l0,0l0,0l0,0l0,0l0,0l0,0l0,0L15.5,299.8L15.5,299.8z M14.7,314.2l-1-0.9l1.7-14l1.7,0.2l-1.7,14
					L14.7,314.2z M15.4,313.5L15.4,313.5L15.4,313.5l0,0.1l0,0l0,0l0,0l0,0l0,0l0,0l0,0l0,0l0,0l0,0l0,0l0,0l0,0l0,0l0,0l0,0l0,0
					l0,0l0,0l0,0l0,0l0,0l0,0l0,0l0,0l0,0l0,0l0,0l0,0l0,0l0,0l0,0l0,0l0,0l0,0l0,0l0,0l0,0l0,0l0,0l0,0l0,0l0,0l0,0l0,0l0,0l0,0
					l0,0l0,0l0,0l0,0l0,0l0,0l0,0l0,0l0,0l0,0l0,0l0,0l0,0l0,0C13.7,313.3,15.4,313.5,15.4,313.5z M0.5,317.2l0.2-1.6l13.7-3.1
					l0.4,1.6L1,317.3C1,317.3,0.5,317.2,0.5,317.2z M1,317.3L1,317.3L1,317.3l-0.1,0l0,0l0,0l0,0l0,0l0,0l0,0l0,0l0,0l0,0l0,0l0,0
					l0,0l0,0l0,0l0,0l0,0l0,0l0,0l0,0l0,0l0,0l0,0l0,0l0,0l0,0l0,0l0,0l0,0l0,0l0,0l0,0l0,0l0,0l0,0l0,0l0,0l0,0l0,0l0,0l0,0l0,0
					l0,0l0,0l0,0l0,0l0,0l0,0l0,0l0,0l0,0l0,0l0,0l0,0l0,0l0,0l0,0l0,0l0,0l0,0l0,0l0,0L1,317.3L1,317.3z M14.4,322.4l-1.2,0.7
					l-12.8-5.9l0.7-1.5l12.8,5.9L14.4,322.4z M14,321.6L14,321.6L14,321.6l0.1,0.1l0,0l0,0l0,0l0,0l0,0l0,0l0,0l0,0l0,0l0,0l0,0l0,0
					l0,0l0,0l0,0l0,0l0,0l0,0l0,0l0,0l0,0l0,0l0,0l0,0l0,0l0,0l0,0l0,0l0,0l0,0l0,0l0,0l0,0l0,0l0,0l0,0l0,0l0,0l0,0l0,0l0,0l0,0
					l0,0l0,0l0,0l0,0l0,0l0,0l0,0l0,0l0,0l0,0l0,0l0,0l0,0l0,0l0,0l0,0l0,0l0,0l0,0L14,321.6L14,321.6z M12.9,336.9l-1.5-0.6l1.3-14
					l1.7,0.2l-1.3,14L12.9,336.9z M13.2,336.4L13.2,336.4L13.2,336.4l0,0.1l0,0l0,0l0,0l0,0l0,0l0,0l0,0l0,0l0,0l0,0l0,0l0,0l0,0
					l0,0l0,0l0,0l0,0l0,0l0,0l0,0l0,0l0,0l0,0l0,0l0,0l0,0l0,0l0,0l0,0l0,0l0,0l0,0l0,0l0,0l0,0l0,0l0,0l0,0l0,0l0,0l0,0l0,0l0,0
					l0,0l0,0l0,0l0,0l0,0l0,0l0,0l0,0l0,0l0,0l0,0l0,0l0,0l0,0l0,0l0,0l0,0l0,0L13.2,336.4L13.2,336.4z M22.2,325.3l0.3,1.3
					l-9.6,10.3l-1.2-1.1l9.6-10.3L22.2,325.3z M21.3,325.5L21.3,325.5L21.3,325.5L21.3,325.5l0.1-0.1l0,0l0,0l0,0l0,0l0,0l0,0l0,0
					l0,0l0,0l0,0l0,0l0,0l0,0l0,0l0,0l0,0l0,0l0,0l0,0l0,0l0,0l0,0l0,0l0,0l0,0l0,0l0,0l0,0l0,0l0,0l0,0l0,0l0,0l0,0l0,0l0,0l0,0
					l0,0l0,0l0,0l0,0l0,0l0,0l0,0l0,0l0,0l0,0l0,0l0,0l0,0l0,0l0,0l0,0l0,0l0,0l0,0l0,0l0,0l0,0l0,0L21.3,325.5L21.3,325.5z
					 M35.5,331.1l-1.1,1.2l-12.9-5.5l0.7-1.6l12.9,5.5L35.5,331.1z M35.1,330.8L35.1,330.8L35.1,330.8l0.1,0.1l0,0l0,0l0,0l0,0l0,0
					l0,0l0,0l0,0l0,0l0,0l0,0l0,0l0,0l0,0l0,0l0,0l0,0l0,0l0,0l0,0l0,0l0,0l0,0l0,0l0,0l0,0l0,0l0,0l0,0l0,0l0,0l0,0l0,0l0,0l0,0
					l0,0l0,0l0,0l0,0l0,0l0,0l0,0l0,0l0,0l0,0l0,0l0,0l0,0l0,0l0,0l0,0l0,0l0,0l0,0l0,0l0,0l0,0l0,0l0,0l0,0l0,0L35.1,330.8
					L35.1,330.8z M27.3,318.7l1.4,0.1l6.9,12.3L34,332l-6.9-12.3L27.3,318.7L27.3,318.7z M27.2,319.7L27.2,319.7L27.2,319.7
					l-0.1-0.1l0,0l0,0l0,0l0,0l0,0l0,0l0,0l0,0l0,0l0,0l0,0l0,0l0,0l0,0l0,0l0,0l0,0l0,0l0,0l0,0l0,0l0,0l0,0l0,0l0,0l0,0l0,0l0,0
					l0,0l0,0l0,0l0,0l0,0l0,0l0,0l0,0l0,0l0,0l0,0l0,0l0,0l0,0l0,0l0,0l0,0l0,0l0,0l0,0l0,0l0,0l0,0l0,0l0,0l0,0l0,0l0,0l0,0l0,0
					l0,0l0,0l0,0L27.2,319.7L27.2,319.7z M37,307.9l0.8,1.4l-9.3,10.6l-1.3-1.1l9.3-10.6L37,307.9z M36.5,308.2L36.5,308.2
					L36.5,308.2L36.5,308.2l0.1-0.1l0,0l0,0l0,0l0,0l0,0l0,0l0,0l0,0l0,0l0,0l0,0l0,0l0,0l0,0l0,0l0,0l0,0l0,0l0,0l0,0l0,0l0,0l0,0
					l0,0l0,0l0,0l0,0l0,0l0,0l0,0l0,0l0,0l0,0l0,0l0,0l0,0l0,0l0,0l0,0l0,0l0,0l0,0l0,0l0,0l0,0l0,0l0,0l0,0l0,0l0,0l0,0l0,0l0,0
					l0,0l0,0l0,0l0,0l0,0l0,0l0,0L36.5,308.2L36.5,308.2z"/>
			</g>
			<g>
				<path class="st1" d="M140.3,249.3c24.7,42.8-4.2,75-20.9,84.6c-16.6,9.6-36.1,10.3-36.1,10.3c10.1-3.6,65.8-31.9,36.3-83
					c-29.2-50.6-81.9-17-90-10.1c0,0,10.4-16.5,27-26.1C73.3,215.5,116.4,207.8,140.3,249.3L140.3,249.3z"/>
				<path id="_x31__42_" class="st2" d="M119.1,333.2L119.1,333.2l1.6-0.9l1.6-1.1l1.7-1.2l1.7-1.3l1.7-1.5l1.8-1.6l1.7-1.7l1.7-1.8
					l1.7-1.9l1.7-2l1.6-2.1l1.6-2.2l1.5-2.4l1.4-2.5l1.3-2.6l1.2-2.7l1.1-2.7l1-2.8l0.8-2.9l0.7-3l0.5-3.1l0.3-3.2l0.1-3.3l-0.1-3.4
					l-0.3-3.4l-0.5-3.5l-0.8-3.6l-1-3.7l-1.3-3.7l-1.6-3.8l-1.8-3.9l-2.1-3.9l1.5-0.8l2.2,4l1.9,4l1.6,3.9l1.3,3.8l1,3.8l0.8,3.7
					l0.5,3.6l0.3,3.5l0.1,3.5l-0.1,3.4l-0.3,3.3l-0.5,3.2l-0.7,3.1l-0.8,3l-1,2.9l-1.1,2.8l-1.2,2.7l-1.4,2.6l-1.5,2.5l-1.5,2.4
					L139,317l-1.7,2.2l-1.7,2.1l-1.8,2l-1.8,1.9l-1.8,1.7l-1.8,1.6l-1.8,1.5l-1.8,1.4l-1.7,1.2l-1.7,1.1l-1.6,1l0,0L119.1,333.2
					L119.1,333.2z M83.6,345.1l-0.3-1.6l0,0l0.2,0l0.3,0l0.4,0l0.5,0l0.6,0l0.6-0.1l0.7-0.1l0.8-0.1l0.9-0.1l1-0.1l1-0.2l1.1-0.2
					l1.2-0.2l1.2-0.2l1.3-0.2l1.3-0.3l1.4-0.3l1.4-0.3l1.4-0.4l1.5-0.4l1.5-0.4l1.5-0.5l1.5-0.5l1.6-0.5l1.6-0.6l1.6-0.6l1.6-0.7
					l1.6-0.7l1.6-0.8l1.6-0.8l1.5-0.9l0.8,1.5l-1.6,0.9l-1.6,0.8l-1.6,0.8l-1.6,0.7l-1.6,0.7l-1.6,0.6l-1.6,0.6l-1.6,0.6l-1.6,0.5
					l-1.5,0.5l-1.5,0.4l-1.5,0.4l-1.5,0.4l-1.4,0.3l-1.4,0.3l-1.3,0.3l-1.3,0.2l-1.2,0.2l-1.2,0.2l-1.1,0.2l-1.1,0.1l-1,0.1
					l-0.9,0.1l-0.8,0.1l-0.7,0.1l-0.7,0.1l-0.6,0l-0.5,0l-0.4,0L83.6,345.1l-0.2,0l-0.1,0l-0.3-1.6L83.6,345.1L83.6,345.1z
					 M83.4,345.1l-5.5,0.2l5.2-1.8C83.1,343.5,83.4,345.1,83.4,345.1z M120.4,260.9L120.4,260.9l2.5,4.8l2.1,4.6l1.6,4.5l1.2,4.4
					l0.8,4.3l0.4,4.1l0,4l-0.3,3.9l-0.6,3.7l-0.9,3.6l-1.2,3.4l-1.4,3.3l-1.6,3.1l-1.8,3l-2,2.9l-2.1,2.7l-2.2,2.6l-2.3,2.4
					l-2.4,2.3l-2.4,2.1l-2.5,2l-2.5,1.9l-2.4,1.7l-2.4,1.6l-2.3,1.4l-2.2,1.3l-2.1,1.1l-1.9,1l-1.8,0.9l-1.6,0.7l-1.3,0.6l-1.1,0.4
					l-0.6-1.6l1-0.4l1.3-0.5l1.5-0.7l1.7-0.8l1.9-1l2-1.1l2.2-1.3l2.3-1.4l2.3-1.5l2.4-1.7l2.4-1.8l2.4-2l2.4-2.1l2.3-2.2l2.3-2.4
					l2.2-2.5l2.1-2.6l1.9-2.8l1.8-2.9l1.6-3l1.4-3.2l1.1-3.3l0.9-3.4l0.6-3.6l0.3-3.7l0-3.8l-0.4-4l-0.7-4.1l-1.1-4.3l-1.6-4.4
					l-2-4.5l-2.5-4.7l0,0L120.4,260.9L120.4,260.9z M30.3,251.7l-1.3-1.1l0.9-0.7l1.2-0.9l1.4-1l1.6-1.1l1.8-1.2l2-1.2l2.2-1.2
					l2.4-1.3l2.6-1.3l2.7-1.2l2.8-1.2l3-1.1l3.1-1l3.2-0.9l3.3-0.8l3.4-0.6l3.4-0.5l3.5-0.3L77,233l3.5,0.2l3.6,0.4l3.6,0.7l3.6,1
					l3.5,1.3l3.5,1.6l3.4,2l3.4,2.4l3.3,2.8l3.2,3.2l3.1,3.6l3,4.1l2.8,4.5l-1.5,0.8l-2.8-4.5l-2.9-4l-3-3.5l-3.1-3.1L104,244
					l-3.2-2.3l-3.3-1.9l-3.4-1.6l-3.4-1.3l-3.4-1l-3.4-0.7l-3.4-0.4l-3.4-0.2l-3.4,0.1l-3.4,0.3l-3.3,0.5l-3.3,0.6l-3.2,0.8
					l-3.1,0.9l-3,1l-2.9,1.1l-2.8,1.2l-2.7,1.2l-2.5,1.2l-2.3,1.2l-2.2,1.2l-2,1.2l-1.8,1.1l-1.6,1.1l-1.4,1l-1.1,0.8l-0.9,0.7
					l-1.3-1.1L30.3,251.7L30.3,251.7z M57.1,225.8L57.1,225.8l-1.5,0.9l-1.5,0.9l-1.4,1l-1.4,1l-1.4,1l-1.3,1l-1.3,1.1l-1.3,1.1
					l-1.2,1.1l-1.2,1.1l-1.1,1.1l-1.1,1.1l-1,1.1l-1,1l-0.9,1l-0.9,1l-0.8,1l-0.8,0.9l-0.7,0.9l-0.7,0.9l-0.6,0.8l-0.6,0.8l-0.5,0.7
					l-0.5,0.7l-0.4,0.6l-0.4,0.5l-0.3,0.5l-0.3,0.4l-0.2,0.3l-0.1,0.2l-0.1,0.1l0,0l-1.4-0.9l0-0.1l0.1-0.1l0.2-0.2l0.2-0.3l0.3-0.4
					l0.3-0.5l0.4-0.5l0.4-0.6l0.5-0.7l0.5-0.7l0.6-0.8l0.7-0.8l0.7-0.9l0.8-0.9l0.8-1l0.9-1l0.9-1l1-1l1-1.1l1.1-1.1l1.1-1.1
					l1.1-1.1l1.2-1.1l1.2-1.1l1.3-1.1l1.3-1.1l1.4-1.1l1.4-1.1l1.4-1l1.5-1l1.5-1l1.6-0.9l0,0L57.1,225.8L57.1,225.8z M139.6,249.8
					L139.6,249.8l-2.3-3.7l-2.4-3.4l-2.5-3.2l-2.6-2.9l-2.6-2.6l-2.7-2.4l-2.8-2.2l-2.8-1.9l-2.9-1.7l-2.9-1.5l-2.9-1.3l-2.9-1.1
					l-3-1l-3-0.8l-3-0.6l-2.9-0.5l-2.9-0.3l-2.9-0.2l-2.9,0l-2.8,0.1l-2.8,0.2l-2.7,0.3l-2.6,0.4l-2.5,0.5l-2.5,0.6l-2.4,0.6
					l-2.3,0.7l-2.1,0.8l-2,0.8l-1.9,0.8l-1.7,0.9l-1.6,0.9l-0.8-1.5l1.7-0.9l1.8-0.9l2-0.9l2.1-0.8l2.2-0.8l2.3-0.7l2.4-0.7l2.5-0.6
					l2.6-0.5l2.7-0.4l2.8-0.3l2.8-0.2l2.9-0.1l2.9,0l3,0.2l3,0.3l3,0.5l3,0.6l3,0.8l3,1l3,1.2l3,1.4l3,1.6l2.9,1.8l2.9,2l2.8,2.2
					l2.8,2.5l2.7,2.7l2.6,3l2.5,3.2l2.4,3.5l2.3,3.8l0,0L139.6,249.8L139.6,249.8z"/>
			</g>
			<g>
				<polygon class="st1" points="350.7,304.5 349.3,291.5 268.6,250.9 266,255.5 263.3,260.1 338.8,309.7 				"/>
				<path id="_x31__43_" class="st2" d="M349.7,290.8l0.5,0.7l1.5,12.9l-1.7,0.2l-1.5-12.9L349.7,290.8L349.7,290.8z M349.7,290.8
					l0.4,0.2l0.1,0.5L349.7,290.8z M267.9,250.5l1.1-0.3l80.6,40.6l-0.8,1.5l-80.6-40.6L267.9,250.5L267.9,250.5z M267.9,250.5
					l0.4-0.7l0.7,0.4L267.9,250.5L267.9,250.5z M265.2,255.1L265.2,255.1l2.7-4.6l1.5,0.8l-2.7,4.6L265.2,255.1z M265.2,255.1
					L265.2,255.1L265.2,255.1L265.2,255.1z M262.8,260.9l-0.3-1.1l2.7-4.6l1.5,0.8l-2.7,4.6L262.8,260.9z M262.8,260.9l-0.7-0.4
					l0.4-0.7L262.8,260.9L262.8,260.9z M339.1,310.5l-0.8-0.1l-75.5-49.5l0.9-1.4l75.5,49.5L339.1,310.5z M339.1,310.5l-0.4,0.2
					l-0.4-0.2L339.1,310.5L339.1,310.5z M351.6,304.4l-0.5,0.9l-11.9,5.2l-0.7-1.5l11.9-5.2L351.6,304.4L351.6,304.4z M351.6,304.4
					l0.1,0.6l-0.6,0.2L351.6,304.4L351.6,304.4z"/>
			</g>
			<g>
				<polygon class="st1" points="263.3,260.1 355.5,320.3 359.8,331.7 348.6,332 259.2,268.3 				"/>
				<path id="_x31__44_" class="st2" d="M356.3,320l-1.2,1l-92.2-60.2l0.9-1.4l92.2,60.2L356.3,320L356.3,320z M355.9,319.6l0.2,0.2
					l0.1,0.3L355.9,319.6L355.9,319.6z M359.8,332.6l-0.8-0.5l-4.3-11.4l1.6-0.6l4.3,11.4L359.8,332.6z M360.6,331.5l0.4,1.1l-1.2,0
					L360.6,331.5L360.6,331.5z M348.1,332.7l0.5-1.5l11.3-0.2l0,1.7l-11.3,0.2L348.1,332.7L348.1,332.7z M348.6,332.8l-0.3,0
					l-0.2-0.2L348.6,332.8L348.6,332.8z M258.4,267.9l1.2-0.3l89.4,63.7l-1,1.4L258.7,269L258.4,267.9z M258.7,269l-0.6-0.4l0.3-0.6
					L258.7,269z M263.8,259.4l0.3,1.1l-4.1,8.1l-1.5-0.8l4.1-8.1L263.8,259.4L263.8,259.4z M262.5,259.8l0.4-0.8l0.8,0.5
					L262.5,259.8L262.5,259.8z"/>
			</g>
			<g>
				<polygon class="st1" points="263.4,271.3 258.4,278.3 309.3,317.4 319.1,318 315.3,308.3 				"/>
				<path id="_x31__45_" class="st2" d="M257.8,279l-0.2-1.2l5-7l1.4,1l-5,7L257.8,279L257.8,279z M257.8,279l-0.6-0.5l0.5-0.7
					L257.8,279z M309.2,318.3l-0.5-0.2L257.8,279l1-1.3l50.9,39.1L309.2,318.3L309.2,318.3z M309.2,318.3l-0.3,0l-0.2-0.2
					L309.2,318.3L309.2,318.3z M319.9,317.7l-0.8,1.1l-9.8-0.5l0.1-1.7l9.8,0.5L319.9,317.7z M319.9,317.7l0.5,1.2l-1.3-0.1
					L319.9,317.7z M315.8,307.6l0.3,0.4l3.8,9.7l-1.6,0.6l-3.8-9.7L315.8,307.6L315.8,307.6z M315.8,307.6l0.2,0.1l0.1,0.2
					L315.8,307.6z M262.7,270.8l1.2-0.2l52,37l-1,1.4l-52-37L262.7,270.8z M262.7,270.8l0.5-0.7l0.7,0.5L262.7,270.8L262.7,270.8z"
					/>
			</g>
			<g>
				<polygon class="st1" points="258.4,278.3 324.5,329 328.9,342.9 315.7,340.4 255.3,283.9 				"/>
				<path id="_x31__46_" class="st2" d="M325.3,328.7l-1.3,0.9L257.8,279l1-1.3l66.1,50.7L325.3,328.7L325.3,328.7z M325,328.3
					l0.2,0.2l0.1,0.3L325,328.3z M328.8,343.7l-0.6-0.6l-4.5-13.9l1.6-0.5l4.5,13.9L328.8,343.7z M329.7,342.6l0.4,1.3l-1.4-0.3
					L329.7,342.6L329.7,342.6z M315.1,341l0.7-1.4l13.3,2.5l-0.3,1.7l-13.3-2.5L315.1,341L315.1,341z M315.5,341.2l-0.2,0l-0.2-0.2
					L315.5,341.2z M254.6,283.5l1.3-0.2l60.4,56.5l-1.2,1.2l-60.4-56.5L254.6,283.5L254.6,283.5z M254.8,284.5l-0.5-0.4l0.3-0.6
					L254.8,284.5z M258.9,277.7l0.2,1.1l-3,5.6l-1.5-0.8l3-5.6L258.9,277.7L258.9,277.7z M257.6,277.9l0.5-0.9l0.8,0.6L257.6,277.9z
					"/>
			</g>
			<g>
				<polygon class="st1" points="268.6,250.9 366.9,300.6 378.9,298.7 373.5,288.8 273.6,243.3 				"/>
				<path id="_x31__47_" class="st2" d="M367,301.5l-0.5-0.1l-98.2-49.8l0.8-1.5l98.2,49.8L367,301.5L367,301.5z M367,301.5l-0.3,0
					l-0.2-0.1L367,301.5L367,301.5z M379.7,298.3l-0.6,1.2l-12.1,2l-0.3-1.7l12.1-2L379.7,298.3z M379.7,298.3l0.6,1l-1.2,0.2
					L379.7,298.3z M373.8,288l0.4,0.4l5.4,9.9l-1.5,0.8l-5.4-9.9L373.8,288z M373.8,288l0.3,0.1l0.1,0.2L373.8,288z M272.9,242.8
					l1.1-0.3l99.9,45.5l-0.7,1.5L273.3,244L272.9,242.8z M272.9,242.8l0.4-0.6l0.7,0.3L272.9,242.8z M268.3,251.6l-0.3-1.2l5-7.6
					l1.4,0.9l-5,7.6L268.3,251.6z M268.3,251.6l-0.8-0.4l0.5-0.8L268.3,251.6z"/>
			</g>
			<g>
				<polygon class="st1" points="278.3,245.4 281.9,237.5 341.3,262 346.6,270.3 336.4,271.9 				"/>
				<path id="_x31__48_" class="st2" d="M282.2,236.7l0.4,1.1l-3.6,7.9l-1.5-0.7l3.6-7.9L282.2,236.7L282.2,236.7z M281.2,237.2
					l0.3-0.7l0.8,0.3L281.2,237.2z M342,261.6l-1,1.2l-59.3-24.5l0.6-1.6l59.3,24.5L342,261.6L342,261.6z M341.6,261.3l0.2,0.1
					l0.1,0.2L341.6,261.3z M346.7,271.1l-0.8-0.4l-5.4-8.3l1.4-0.9l5.4,8.3L346.7,271.1z M347.3,269.8l0.7,1.1l-1.3,0.2L347.3,269.8
					L347.3,269.8z M336,272.6l0.2-1.6l10.2-1.6l0.3,1.7l-10.2,1.6L336,272.6z M336.5,272.7l-0.2,0l-0.2-0.1L336.5,272.7z M277.6,245
					l1.1-0.4l58,26.5l-0.7,1.5l-58-26.5L277.6,245z M278,246.2l-0.8-0.3l0.3-0.8L278,246.2z"/>
			</g>
			<g>
				<polygon class="st1" points="281.9,237.5 358.8,269.4 373.1,266.4 364.3,256.1 285.3,232.1 				"/>
				<path id="_x31__49_" class="st2" d="M359,270.3l-0.5,0l-76.9-31.9l0.6-1.6l76.9,31.9L359,270.3z M359,270.3l-0.3,0.1l-0.2-0.1
					L359,270.3z M373.8,265.8l-0.5,1.4l-14.3,3.1l-0.4-1.6l14.3-3.1L373.8,265.8z M373.8,265.8l0.9,1.1l-1.4,0.3L373.8,265.8z
					 M364.6,255.3l0.4,0.3l8.8,10.2l-1.3,1.1l-8.8-10.2L364.6,255.3z M364.6,255.3l0.2,0.1l0.2,0.2L364.6,255.3L364.6,255.3z
					 M284.5,231.7l1-0.4l79.1,24l-0.5,1.6l-79.1-24L284.5,231.7L284.5,231.7z M284.5,231.7l0.3-0.6l0.6,0.2L284.5,231.7z
					 M281.6,238.3l-0.4-1.2l3.3-5.4l1.4,0.9l-3.3,5.4L281.6,238.3L281.6,238.3z M281.6,238.3l-0.9-0.4l0.5-0.8L281.6,238.3
					L281.6,238.3z"/>
			</g>
			<g>
				<polygon class="st3" points="358.4,308.7 372.2,311.5 379.4,299.4 381.1,313.4 394.8,316.5 382,322.4 383.3,336.3 373.7,326 
					360.8,331.6 367.7,319.3 				"/>
				<path id="_x31__50_" class="st2" d="M373,311.9l-0.9,0.4l-13.8-2.7l0.3-1.7l13.8,2.7L373,311.9L373,311.9z M372.1,312.3l0.3-1.7
					l0,0l0,0l0,0l0,0l0,0l0,0l0,0l0,0l0,0l0,0l0,0l0,0l0,0l0,0l0,0l0,0l0,0l0,0l0,0l0,0l0,0l0,0l0,0l0,0l0,0l0,0l0,0l0,0l0,0l0,0
					l0,0l0,0l0,0l0,0l0,0l0,0l0,0l0,0l0,0l0,0l0,0l0,0l0,0l0,0l0,0l0,0l0,0l0,0l0,0l0,0l0,0l0,0l0,0l0,0l0,0l0,0l0,0l0,0l0,0l0,0
					l0,0L372.1,312.3L372.1,312.3L372.1,312.3L372.1,312.3z M380.2,299.3l-0.1,0.5l-7.2,12.1l-1.4-0.9l7.2-12.1L380.2,299.3
					L380.2,299.3z M380.1,299.8l-1.4-0.9l0,0l0,0l0,0l0,0l0,0l0,0l0,0l0,0l0,0l0,0l0,0l0,0l0,0l0,0l0,0l0,0l0,0l0,0l0,0l0,0l0,0l0,0
					l0,0l0,0l0,0l0,0l0,0l0,0l0,0l0,0l0,0l0,0l0,0l0,0l0,0l0,0l0,0l0,0l0,0l0,0l0,0l0,0l0,0l0,0l0,0l0,0l0,0l0,0l0,0l0,0l0,0l0,0
					l0,0l0,0l0,0l0,0l0,0l0,0l0,0l0,0l0,0L380.1,299.8L380.1,299.8L380.1,299.8L380.1,299.8z M380.9,314.2l-0.6-0.7l-1.7-14l1.7-0.2
					l1.7,14L380.9,314.2z M380.3,313.5l1.7-0.2l0,0l0,0l0,0l0,0l0,0l0,0l0,0l0,0l0,0l0,0l0,0l0,0l0,0l0,0l0,0l0,0l0,0l0,0l0,0l0,0
					l0,0l0,0l0,0l0,0l0,0l0,0l0,0l0,0l0,0l0,0l0,0l0,0l0,0l0,0l0,0l0,0l0,0l0,0l0,0l0,0l0,0l0,0l0,0l0,0l0,0l0,0l0,0l0,0l0,0l0,0
					l0,0l0,0l0,0l0,0l0,0l0,0l0,0l0,0l0,0l0,0l0,0L380.3,313.5L380.3,313.5L380.3,313.5L380.3,313.5z M395.1,317.2l-0.5,0.1
					l-13.7-3.1l0.4-1.6l13.7,3.1L395.1,317.2z M394.6,317.3l0.4-1.6l0,0l0,0l0,0l0,0l0,0l0,0l0,0l0,0l0,0l0,0l0,0l0,0l0,0l0,0l0,0
					l0,0l0,0l0,0l0,0l0,0l0,0l0,0l0,0l0,0l0,0l0,0l0,0l0,0l0,0l0,0l0,0l0,0l0,0l0,0l0,0l0,0l0,0l0,0l0,0l0,0l0,0l0,0l0,0l0,0l0,0
					l0,0l0,0l0,0l0,0l0,0l0,0l0,0l0,0l0,0l0,0l0,0l0,0l0,0l0,0l0,0l0,0L394.6,317.3L394.6,317.3L394.6,317.3L394.6,317.3z
					 M381.2,322.4l0.5-0.8l12.8-5.9l0.7,1.5l-12.8,5.9L381.2,322.4z M381.7,321.6l0.7,1.5l0,0l0,0l0,0l0,0l0,0l0,0l0,0l0,0l0,0l0,0
					l0,0l0,0l0,0l0,0l0,0l0,0l0,0l0,0l0,0l0,0l0,0l0,0l0,0l0,0l0,0l0,0l0,0l0,0l0,0l0,0l0,0l0,0l0,0l0,0l0,0l0,0l0,0l0,0l0,0l0,0
					l0,0l0,0l0,0l0,0l0,0l0,0l0,0l0,0l0,0l0,0l0,0l0,0l0,0l0,0l0,0l0,0l0,0l0,0l0,0l0,0l0,0L381.7,321.6L381.7,321.6L381.7,321.6
					L381.7,321.6z M382.7,336.9l-0.2-0.5l-1.3-14l1.7-0.2l1.3,14L382.7,336.9z M382.5,336.4l1.7-0.2l0,0l0,0l0,0l0,0l0,0l0,0l0,0
					l0,0l0,0l0,0l0,0l0,0l0,0l0,0l0,0l0,0l0,0l0,0l0,0l0,0l0,0l0,0l0,0l0,0l0,0l0,0l0,0l0,0l0,0l0,0l0,0l0,0l0,0l0,0l0,0l0,0l0,0
					l0,0l0,0l0,0l0,0l0,0l0,0l0,0l0,0l0,0l0,0l0,0l0,0l0,0l0,0l0,0l0,0l0,0l0,0l0,0l0,0l0,0l0,0l0,0l0,0L382.5,336.4L382.5,336.4
					L382.5,336.4L382.5,336.4z M373.4,325.3l1,0.2l9.6,10.3l-1.2,1.1l-9.6-10.3L373.4,325.3L373.4,325.3z M374.4,325.5l-1.2,1.1l0,0
					l0,0l0,0l0,0l0,0l0,0l0,0l0,0l0,0l0,0l0,0l0,0l0,0l0,0l0,0l0,0l0,0l0,0l0,0l0,0l0,0l0,0l0,0l0,0l0,0l0,0l0,0l0,0l0,0l0,0l0,0
					l0,0l0,0l0,0l0,0l0,0l0,0l0,0l0,0l0,0l0,0l0,0l0,0l0,0l0,0l0,0l0,0l0,0l0,0l0,0l0,0l0,0l0,0l0,0l0,0l0,0l0,0l0,0l0,0l0,0
					L374.4,325.5L374.4,325.5L374.4,325.5L374.4,325.5L374.4,325.5z M360.1,331.1l0.4-0.4l12.9-5.5l0.7,1.6l-12.9,5.5L360.1,331.1
					L360.1,331.1z M360.5,330.8l0.7,1.6l0,0l0,0l0,0l0,0l0,0l0,0l0,0l0,0l0,0l0,0l0,0l0,0l0,0l0,0l0,0l0,0l0,0l0,0l0,0l0,0l0,0l0,0
					l0,0l0,0l0,0l0,0l0,0l0,0l0,0l0,0l0,0l0,0l0,0l0,0l0,0l0,0l0,0l0,0l0,0l0,0l0,0l0,0l0,0l0,0l0,0l0,0l0,0l0,0l0,0l0,0l0,0l0,0
					l0,0l0,0l0,0l0,0l0,0l0,0l0,0l0,0l0,0L360.5,330.8L360.5,330.8L360.5,330.8L360.5,330.8z M368.3,318.7l0.1,1l-6.9,12.3l-1.5-0.8
					l6.9-12.3L368.3,318.7L368.3,318.7z M368.4,319.7l-1.5-0.8l0,0l0,0l0,0l0,0l0,0l0,0l0,0l0,0l0,0l0,0l0,0l0,0l0,0l0,0l0,0l0,0
					l0,0l0,0l0,0l0,0l0,0l0,0l0,0l0,0l0,0l0,0l0,0l0,0l0,0l0,0l0,0l0,0l0,0l0,0l0,0l0,0l0,0l0,0l0,0l0,0l0,0l0,0l0,0l0,0l0,0l0,0
					l0,0l0,0l0,0l0,0l0,0l0,0l0,0l0,0l0,0l0,0l0,0l0,0l0,0l0,0l0,0L368.4,319.7L368.4,319.7L368.4,319.7L368.4,319.7z M358.6,307.9
					l0.5,0.3l9.3,10.6l-1.3,1.1l-9.2-10.6L358.6,307.9z M359.1,308.2l-1.3,1.1l0,0l0,0l0,0l0,0l0,0l0,0l0,0l0,0l0,0l0,0l0,0l0,0l0,0
					l0,0l0,0l0,0l0,0l0,0l0,0l0,0l0,0l0,0l0,0l0,0l0,0l0,0l0,0l0,0l0,0l0,0l0,0l0,0l0,0l0,0l0,0l0,0l0,0l0,0l0,0l0,0l0,0l0,0l0,0
					l0,0l0,0l0,0l0,0l0,0l0,0l0,0l0,0l0,0l0,0l0,0l0,0l0,0l0,0l0,0l0,0l0,0L359.1,308.2L359.1,308.2L359.1,308.2L359.1,308.2
					L359.1,308.2z"/>
			</g>
			<g>
				<path class="st1" d="M255.3,249.3c-24.7,42.8,4.2,75,20.9,84.6c16.6,9.6,36.1,10.3,36.1,10.3c-10.1-3.6-65.8-31.9-36.3-83
					c29.2-50.6,81.9-17,90-10.1c0,0-10.4-16.5-27-26.1C322.3,215.5,279.2,207.8,255.3,249.3L255.3,249.3z"/>
				<path id="_x31__51_" class="st2" d="M276.5,333.2l-0.8,1.5l0,0l-1.6-1l-1.7-1.1l-1.7-1.2l-1.8-1.4l-1.8-1.5l-1.8-1.6l-1.8-1.7
					l-1.8-1.9l-1.8-2l-1.7-2.1l-1.7-2.2l-1.6-2.3l-1.5-2.4l-1.5-2.5l-1.4-2.6l-1.2-2.7l-1.1-2.8l-1-2.9l-0.8-3l-0.7-3.1l-0.5-3.2
					l-0.3-3.3l-0.1-3.4l0.1-3.5l0.3-3.5l0.5-3.6l0.8-3.7l1-3.8l1.3-3.8l1.6-3.9l1.9-4l2.2-4l1.5,0.8l-2.1,3.9l-1.8,3.9l-1.6,3.8
					l-1.3,3.7l-1,3.7l-0.8,3.6l-0.5,3.5l-0.3,3.4l-0.1,3.4l0.1,3.3l0.3,3.2l0.5,3.1l0.7,3l0.8,2.9l1,2.8l1.1,2.7l1.2,2.7l1.3,2.6
					l1.4,2.5l1.5,2.4l1.6,2.2l1.6,2.1l1.7,2l1.7,1.9l1.7,1.8l1.7,1.7l1.8,1.6l1.7,1.5l1.7,1.3l1.7,1.2l1.6,1.1L276.5,333.2
					L276.5,333.2L276.5,333.2z M312,345.1l0.6-1.6l-0.3,1.6l-0.1,0L312,345.1l-0.3,0l-0.4,0l-0.5,0l-0.6,0l-0.7-0.1l-0.7-0.1
					l-0.8-0.1l-0.9-0.1l-1-0.1l-1.1-0.1l-1.1-0.2l-1.2-0.2l-1.2-0.2l-1.3-0.2l-1.3-0.3l-1.4-0.3l-1.4-0.3l-1.5-0.4l-1.5-0.4
					l-1.5-0.4l-1.5-0.5l-1.6-0.5l-1.6-0.6l-1.6-0.6l-1.6-0.6l-1.6-0.7l-1.6-0.7l-1.6-0.8l-1.6-0.8l-1.6-0.9l0.8-1.5l1.5,0.9l1.6,0.8
					l1.6,0.8l1.6,0.7l1.6,0.7l1.6,0.6l1.6,0.6l1.6,0.5l1.5,0.5l1.5,0.5l1.5,0.4l1.5,0.4l1.4,0.4l1.4,0.3l1.4,0.3l1.3,0.3l1.3,0.2
					l1.2,0.2l1.2,0.2l1.1,0.2l1,0.2l1,0.1l0.9,0.1l0.8,0.1l0.7,0.1l0.6,0.1l0.6,0l0.5,0l0.4,0l0.3,0l0.2,0l0,0L312,345.1z
					 M312.5,343.5l5.2,1.8l-5.5-0.2L312.5,343.5z M275.2,260.9l1.5,0.8l0,0l-2.5,4.7l-2,4.5l-1.6,4.4l-1.1,4.3l-0.7,4.1l-0.4,4
					l0,3.8l0.3,3.7l0.6,3.6l0.9,3.4l1.1,3.3l1.4,3.2l1.6,3l1.8,2.9l1.9,2.8l2.1,2.6l2.2,2.5l2.3,2.4l2.3,2.2l2.4,2.1l2.4,2l2.4,1.8
					l2.4,1.7l2.3,1.5l2.3,1.4l2.2,1.3l2,1.1l1.9,1l1.7,0.8l1.5,0.7l1.3,0.5l1,0.4l-0.6,1.6l-1.1-0.4l-1.3-0.6l-1.6-0.7l-1.8-0.9
					l-1.9-1l-2.1-1.1l-2.2-1.3l-2.3-1.4l-2.4-1.6l-2.4-1.7l-2.5-1.9l-2.5-2l-2.4-2.1l-2.4-2.3l-2.3-2.4l-2.2-2.6l-2.1-2.7l-2-2.9
					l-1.8-3l-1.6-3.1l-1.4-3.3l-1.2-3.4l-0.9-3.6l-0.6-3.7l-0.3-3.9l0-4l0.4-4.1l0.8-4.3l1.2-4.4l1.6-4.5l2.1-4.6L275.2,260.9
					L275.2,260.9L275.2,260.9z M365.3,251.7l1.4-0.9l-1.3,1.1l-0.9-0.7l-1.1-0.8l-1.4-1l-1.6-1.1l-1.8-1.1l-2-1.2l-2.2-1.2l-2.3-1.2
					l-2.5-1.2l-2.7-1.2l-2.8-1.2l-2.9-1.1l-3-1l-3.1-0.9l-3.2-0.8l-3.3-0.6l-3.3-0.5l-3.4-0.3l-3.4-0.1l-3.4,0.2l-3.4,0.4l-3.4,0.7
					l-3.4,1l-3.4,1.3l-3.4,1.6l-3.3,1.9l-3.2,2.3l-3.2,2.7l-3.1,3.1l-3,3.5l-2.9,4l-2.8,4.5l-1.5-0.8l2.8-4.5l3-4.1l3.1-3.6l3.2-3.2
					l3.3-2.8l3.4-2.4l3.4-2l3.5-1.6l3.5-1.3l3.6-1l3.6-0.7l3.6-0.4l3.5-0.2l3.5,0.1l3.5,0.3l3.4,0.5l3.4,0.6l3.3,0.8l3.2,0.9l3.1,1
					l3,1.1l2.8,1.2l2.7,1.2l2.6,1.3l2.4,1.3l2.2,1.2l2,1.2l1.8,1.2l1.6,1.1l1.4,1l1.2,0.9l0.9,0.7L365.3,251.7L365.3,251.7z
					 M338.6,225.8l0.8-1.5l0,0l1.6,0.9l1.5,1l1.5,1l1.4,1l1.4,1.1l1.4,1.1l1.3,1.1l1.3,1.1l1.2,1.1l1.2,1.1l1.1,1.1l1.1,1.1l1.1,1.1
					l1,1.1l1,1l0.9,1l0.9,1l0.8,1l0.8,0.9l0.7,0.9l0.7,0.8l0.6,0.8l0.5,0.7l0.5,0.7l0.4,0.6l0.4,0.5l0.3,0.5l0.3,0.4l0.2,0.3
					l0.2,0.2l0.1,0.1l0,0.1l-1.4,0.9l0,0l-0.1-0.1l-0.1-0.2l-0.2-0.3l-0.3-0.4l-0.3-0.5l-0.4-0.5l-0.4-0.6l-0.5-0.7l-0.5-0.7
					l-0.6-0.8l-0.6-0.8l-0.7-0.9l-0.7-0.9l-0.8-0.9l-0.8-1l-0.9-1l-0.9-1l-1-1l-1-1.1l-1.1-1.1L352,236l-1.2-1.1l-1.2-1.1l-1.3-1.1
					l-1.3-1.1l-1.3-1l-1.4-1l-1.4-1l-1.4-1l-1.5-0.9L338.6,225.8L338.6,225.8L338.6,225.8z M256,249.8l-1.5-0.8l0,0l2.3-3.8l2.4-3.5
					l2.5-3.2l2.6-3l2.7-2.7l2.8-2.5l2.8-2.2l2.9-2l2.9-1.8l3-1.6l3-1.4l3-1.2l3-1l3-0.8l3-0.6l3-0.5l3-0.3l3-0.2l2.9,0l2.9,0.1
					l2.8,0.2l2.8,0.3l2.7,0.4l2.6,0.5l2.5,0.6l2.4,0.7l2.3,0.7l2.2,0.8l2.1,0.8l2,0.9l1.8,0.9l1.7,0.9l-0.8,1.5l-1.6-0.9l-1.7-0.9
					l-1.9-0.8l-2-0.8l-2.1-0.8l-2.3-0.7l-2.4-0.6l-2.5-0.6l-2.5-0.5l-2.6-0.4l-2.7-0.3l-2.8-0.2l-2.8-0.1l-2.9,0l-2.9,0.2l-2.9,0.3
					l-2.9,0.5l-3,0.6l-3,0.8l-3,1l-2.9,1.1l-2.9,1.3l-2.9,1.5l-2.9,1.7l-2.8,1.9l-2.8,2.2l-2.7,2.4l-2.6,2.6l-2.6,2.9l-2.5,3.2
					l-2.4,3.4L256,249.8L256,249.8L256,249.8z"/>
			</g>
		</g>
		<g>
			<path class="st4" d="M145.7,217.5c0-20.9,17-37.9,37.9-37.9c13.5,0,25.3,7,32,17.7c-5.5-6.2-13.6-10.1-22.6-10.1
				c-16.7,0-30.3,13.6-30.3,30.3c0,16.7,13.6,30.3,30.3,30.3c9,0,17-3.9,22.6-10.1c-6.7,10.6-18.6,17.6-32,17.6
				C162.7,255.4,145.7,238.4,145.7,217.5z"/>
			<polygon class="st4" points="249.9,206.4 236.8,210.6 228.7,199.5 228.7,213.3 215.6,217.5 228.7,221.8 228.7,235.5 236.8,224.4 
				249.9,228.7 241.8,217.5 			"/>
		</g>
	</g>
</g>
</svg>
